<?xml version="1.0" encoding="UTF-8"?><svg xmlns="http://www.w3.org/2000/svg" xmlns:xlink="http://www.w3.org/1999/xlink" viewBox="0 0 690 414.9"><defs><style>.cls-1,.cls-2,.cls-3,.cls-4{fill:none;}.cls-5{letter-spacing:-.04em;}.cls-6{letter-spacing:-.18em;}.cls-7{font-size:8px;}.cls-7,.cls-8,.cls-9,.cls-10,.cls-11{font-family:NotoSansJP-Medium-83pv-RKSJ-H, 'Noto Sans JP';}.cls-7,.cls-8,.cls-12,.cls-13,.cls-14,.cls-15,.cls-16{fill:#fff;}.cls-17{letter-spacing:-.08em;}.cls-8{font-size:8.38px;}.cls-18{letter-spacing:-.08em;}.cls-19{clip-path:url(#clippath);}.cls-9{fill:#040000;font-size:9.91px;glyph-orientation-vertical:0deg;text-orientation:upright;writing-mode:tb;}.cls-12{letter-spacing:-.05em;}.cls-12,.cls-14,.cls-15{font-family:Roboto-Bold, Roboto;}.cls-12,.cls-15{font-size:14.87px;}.cls-10{font-size:7.5px;}.cls-20{fill:#f46515;}.cls-21{fill:#f5f5f5;}.cls-22{fill:#e5e5e5;}.cls-23{fill:#999;}.cls-24{fill:#aecc00;}.cls-25{fill:#c9e5aa;}.cls-26{fill:#2f3093;}.cls-27{letter-spacing:-.14em;}.cls-28{letter-spacing:-.14em;}.cls-29{letter-spacing:-.09em;}.cls-11{font-size:8.1px;}.cls-2,.cls-3,.cls-4,.cls-16{stroke:#999;stroke-miterlimit:10;}.cls-2,.cls-4,.cls-16{stroke-width:1.26px;}.cls-30{letter-spacing:-.11em;}.cls-31{letter-spacing:-.18em;}.cls-32{clip-path:url(#clippath-1);}.cls-33{clip-path:url(#clippath-4);}.cls-34{clip-path:url(#clippath-3);}.cls-35{clip-path:url(#clippath-2);}.cls-36{clip-path:url(#clippath-7);}.cls-37{clip-path:url(#clippath-8);}.cls-38{clip-path:url(#clippath-6);}.cls-39{clip-path:url(#clippath-5);}.cls-40{clip-path:url(#clippath-9);}.cls-41{letter-spacing:-.16em;}.cls-42{letter-spacing:-.19em;}.cls-43{clip-path:url(#clippath-20);}.cls-44{clip-path:url(#clippath-21);}.cls-45{clip-path:url(#clippath-24);}.cls-46{clip-path:url(#clippath-23);}.cls-47{clip-path:url(#clippath-22);}.cls-48{clip-path:url(#clippath-25);}.cls-49{clip-path:url(#clippath-44);}.cls-50{clip-path:url(#clippath-45);}.cls-51{clip-path:url(#clippath-40);}.cls-52{clip-path:url(#clippath-42);}.cls-53{clip-path:url(#clippath-41);}.cls-54{clip-path:url(#clippath-43);}.cls-55{clip-path:url(#clippath-27);}.cls-56{clip-path:url(#clippath-28);}.cls-57{clip-path:url(#clippath-26);}.cls-58{clip-path:url(#clippath-29);}.cls-59{clip-path:url(#clippath-34);}.cls-60{clip-path:url(#clippath-35);}.cls-61{clip-path:url(#clippath-36);}.cls-62{clip-path:url(#clippath-37);}.cls-63{clip-path:url(#clippath-39);}.cls-64{clip-path:url(#clippath-33);}.cls-65{clip-path:url(#clippath-32);}.cls-66{clip-path:url(#clippath-30);}.cls-67{clip-path:url(#clippath-38);}.cls-68{clip-path:url(#clippath-31);}.cls-69{clip-path:url(#clippath-14);}.cls-70{clip-path:url(#clippath-13);}.cls-71{clip-path:url(#clippath-12);}.cls-72{clip-path:url(#clippath-10);}.cls-73{clip-path:url(#clippath-15);}.cls-74{clip-path:url(#clippath-17);}.cls-75{clip-path:url(#clippath-16);}.cls-76{clip-path:url(#clippath-19);}.cls-77{clip-path:url(#clippath-11);}.cls-78{clip-path:url(#clippath-18);}.cls-79{letter-spacing:-.04em;}.cls-80{letter-spacing:-.03em;}.cls-81{letter-spacing:-.06em;}.cls-82{letter-spacing:-.2em;}.cls-3{stroke-width:.63px;}.cls-4{stroke-linecap:round;}.cls-83{letter-spacing:-.08em;}.cls-14{font-size:15.2px;letter-spacing:-.05em;}.cls-84{letter-spacing:-.07em;}.cls-85{isolation:isolate;opacity:.3;}</style><clipPath id="clippath"><rect class="cls-1" x="516.28" y="191.05" width="16.46" height="16.24"/></clipPath><clipPath id="clippath-1"><rect class="cls-1" x="516.45" y="191.12" width="16.25" height="16.1"/></clipPath><clipPath id="clippath-2"><rect class="cls-1" x="67.44" y="69.85" width="16.46" height="16.24"/></clipPath><clipPath id="clippath-3"><rect class="cls-1" x="67.61" y="69.92" width="16.25" height="16.1"/></clipPath><clipPath id="clippath-4"><rect class="cls-1" x="76.2" y="84.29" width="16.46" height="16.24"/></clipPath><clipPath id="clippath-5"><rect class="cls-1" x="76.37" y="84.36" width="16.25" height="16.1"/></clipPath><clipPath id="clippath-6"><rect class="cls-1" x="68.17" y="106.71" width="16.46" height="16.24"/></clipPath><clipPath id="clippath-7"><rect class="cls-1" x="68.34" y="106.78" width="16.25" height="16.1"/></clipPath><clipPath id="clippath-8"><rect class="cls-1" x="511.87" y="241.98" width="16.46" height="16.24"/></clipPath><clipPath id="clippath-9"><rect class="cls-1" x="512.04" y="242.05" width="16.25" height="16.1"/></clipPath><clipPath id="clippath-10"><rect class="cls-1" x="276.45" y="333.84" width="16.46" height="16.24"/></clipPath><clipPath id="clippath-11"><rect class="cls-1" x="276.61" y="333.91" width="16.25" height="16.1"/></clipPath><clipPath id="clippath-12"><rect class="cls-1" x="503.34" y="201.12" width="9.88" height="9.88"/></clipPath><clipPath id="clippath-13"><rect class="cls-1" x="503.37" y="201.24" width="9.75" height="9.66"/></clipPath><clipPath id="clippath-14"><rect class="cls-1" x="419.01" y="166.45" width="9.88" height="9.88"/></clipPath><clipPath id="clippath-15"><rect class="cls-1" x="419.04" y="166.57" width="9.75" height="9.66"/></clipPath><clipPath id="clippath-16"><rect class="cls-1" x="431.03" y="170.33" width="9.88" height="9.88"/></clipPath><clipPath id="clippath-17"><rect class="cls-1" x="431.05" y="170.45" width="9.75" height="9.66"/></clipPath><clipPath id="clippath-18"><rect class="cls-1" x="358.99" y="197.55" width="9.88" height="9.88"/></clipPath><clipPath id="clippath-19"><rect class="cls-1" x="359.02" y="197.66" width="9.75" height="9.66"/></clipPath><clipPath id="clippath-20"><rect class="cls-1" x="279.63" y="196.6" width="9.88" height="9.88"/></clipPath><clipPath id="clippath-21"><rect class="cls-1" x="279.65" y="196.72" width="9.75" height="9.66"/></clipPath><clipPath id="clippath-22"><rect class="cls-1" x="289.17" y="196.6" width="9.88" height="9.88"/></clipPath><clipPath id="clippath-23"><rect class="cls-1" x="289.19" y="196.72" width="9.75" height="9.66"/></clipPath><clipPath id="clippath-24"><rect class="cls-1" x="83.56" y="68.74" width="9.88" height="9.88"/></clipPath><clipPath id="clippath-25"><rect class="cls-1" x="83.58" y="68.86" width="9.75" height="9.66"/></clipPath><clipPath id="clippath-26"><rect class="cls-1" x="68.68" y="124.52" width="9.88" height="9.88"/></clipPath><clipPath id="clippath-27"><rect class="cls-1" x="68.71" y="124.63" width="9.75" height="9.66"/></clipPath><clipPath id="clippath-28"><rect class="cls-1" x="65.59" y="225.8" width="9.88" height="9.88"/></clipPath><clipPath id="clippath-29"><rect class="cls-1" x="65.61" y="225.92" width="9.75" height="9.66"/></clipPath><clipPath id="clippath-30"><rect class="cls-1" x="65.59" y="237.77" width="9.88" height="9.88"/></clipPath><clipPath id="clippath-31"><rect class="cls-1" x="65.61" y="237.88" width="9.75" height="9.66"/></clipPath><clipPath id="clippath-32"><rect class="cls-1" x="294.46" y="334.88" width="9.88" height="9.88"/></clipPath><clipPath id="clippath-33"><rect class="cls-1" x="294.49" y="334.99" width="9.75" height="9.66"/></clipPath><clipPath id="clippath-34"><rect class="cls-1" x="201.51" y="370.79" width="9.88" height="9.88"/></clipPath><clipPath id="clippath-35"><rect class="cls-1" x="201.53" y="370.9" width="9.75" height="9.66"/></clipPath><clipPath id="clippath-36"><rect class="cls-1" x="189.05" y="370.02" width="9.88" height="9.88"/></clipPath><clipPath id="clippath-37"><rect class="cls-1" x="189.07" y="370.13" width="9.75" height="9.66"/></clipPath><clipPath id="clippath-38"><rect class="cls-1" x="237.9" y="268.89" width="9.88" height="9.88"/></clipPath><clipPath id="clippath-39"><rect class="cls-1" x="237.93" y="269" width="9.75" height="9.66"/></clipPath><clipPath id="clippath-40"><rect class="cls-1" x="133.3" y="182.68" width="9.88" height="9.88"/></clipPath><clipPath id="clippath-41"><rect class="cls-1" x="133.32" y="182.8" width="9.75" height="9.66"/></clipPath><clipPath id="clippath-42"><rect class="cls-1" x="145.43" y="182.68" width="9.88" height="9.88"/></clipPath><clipPath id="clippath-43"><rect class="cls-1" x="145.46" y="182.8" width="9.75" height="9.66"/></clipPath><clipPath id="clippath-44"><rect class="cls-1" x="518.82" y="214.91" width="9.88" height="9.88"/></clipPath><clipPath id="clippath-45"><rect class="cls-1" x="518.84" y="215.02" width="9.75" height="9.66"/></clipPath></defs><g id="_レイヤー_5"><rect class="cls-22" x="51.4" y="57.07" width="31.47" height="26.07"/><rect class="cls-22" x="634.7" y="59.87" width="22.76" height="15.06"/></g><g id="_建具パーツ"><path class="cls-13" d="M648.11,72.89c0-3.92-3.21-7.13-7.13-7.13H70.77c-3.92,0-7.13,3.21-7.13,7.13V363.46c0,3.92,3.19,7.46,7.09,7.87l135.72,14.09c3.9,.41,10.08-.45,13.72-1.89l421.31-166.93c3.65-1.44,6.63-5.84,6.63-9.76V72.89Z"/><path class="cls-21" d="M648.11,72.89c0-3.92-3.21-7.13-7.13-7.13H70.77c-3.92,0-7.13,3.21-7.13,7.13V363.46c0,3.92,3.19,7.46,7.09,7.87l135.72,14.09c3.9,.41,10.08-.45,13.72-1.89l421.31-166.93c3.65-1.44,6.63-5.84,6.63-9.76V72.89Z"/><path class="cls-25" d="M534.3,259.07v-67.91c0-3.92,3.21-7.13,7.13-7.13h3.81c3.92,0,7.13-3.21,7.13-7.13v-48.65c0-3.92-3.21-7.13-7.13-7.13h-41.96c-3.92,0-7.13-3.21-7.13-7.13v-48.22H70.77c-3.92,0-7.13,3.21-7.13,7.13v120h24.14c3.92,0,7.13-2.33,7.13-5.19s-3.21-5.19-7.13-5.19h-7.32c-3.92,0-7.13-3.21-7.13-7.13v-27.4c0-3.92,3.21-7.13,7.13-7.13h7.32c3.92,0,7.13-3.21,7.13-7.13v-7.32c0-3.92,3.21-7.13,7.13-7.13H467.77c3.92,0,9.4,2.27,12.17,5.04l3.8,3.8c2.77,2.77,5.04,8.25,5.04,12.17v60.36c0,3.92-2.99,8.3-6.64,9.72l-145.34,56.72c-3.65,1.43-9.85,2.59-13.78,2.59h-44.97c-3.92,0-7.13,3.21-7.13,7.13v78.14c0,3.92-3.21,7.13-7.13,7.13h-23.66c-3.92,0-7.13-3.21-7.13-7.13v-67.09c0-3.92,3.21-7.13,7.13-7.13h4.03c3.92,0,7.13-3.11,7.13-6.9s-3.21-6.9-7.13-6.9H81.12c-3.92,0-7.13-3.21-7.13-7.13v-21.88c0-3.92,3.21-7.13,7.13-7.13h6.57c3.92,0,7.13-1.86,7.13-4.14s-3.21-4.14-7.13-4.14h-24.05v140.95c0,3.92,3.19,7.46,7.09,7.87l135.72,14.09c3.9,.41,10.08-.45,13.72-1.89l314.13-124.46Z"/><path class="cls-25" d="M275.66,199.82c0,3.92,3.21,7.13,7.13,7.13h32.21c3.92,0,10.12-1.17,13.77-2.61l16.51-6.49c3.65-1.44,7.78,.39,9.18,4.05l1.62,4.24c1.4,3.67,5.53,5.51,9.19,4.09l70.19-27.15c3.66-1.41,6.65-5.78,6.65-9.7v-3.31c0-3.92-3.21-7.13-7.13-7.13h-75.26c-3.92,0-7.11,3.21-7.09,7.13l.03,5.31c.02,3.92-3.17,7.13-7.09,7.13h-62.78c-3.92,0-7.13,3.21-7.13,7.13v10.17Z"/><path class="cls-25" d="M243.72,192.89c3.92,0,7.13-2.33,7.13-5.19s-3.21-5.19-7.13-5.19h-111.26c-3.92,0-7.13,2.33-7.13,5.19s3.21,5.19,7.13,5.19h111.26Z"/><g><path class="cls-23" d="M534.37,319.06l-.78,1.08h0c7.24,5.24,9.74,14.92,5.94,23.02-4.36,9.32-15.49,13.35-24.81,8.99-1.07-.5-2.1-1.11-3.05-1.79-7.24-5.24-9.74-14.92-5.94-23.02,2.11-4.51,5.86-7.94,10.54-9.63,4.69-1.7,9.75-1.47,14.27,.64,1.07,.5,2.1,1.1,3.05,1.79l.78-1.08m0,0c-1.01-.73-2.1-1.37-3.26-1.92-10-4.68-21.9-.37-26.59,9.63-4.14,8.84-1.25,19.15,6.37,24.67,1.01,.73,2.1,1.37,3.26,1.92,10,4.68,21.9,.37,26.59-9.63,4.14-8.83,1.25-19.15-6.37-24.67"/><path class="cls-23" d="M530.01,319.49l-20.36,26.9s4.38-2.02,7.93-.35c3.56,1.67,4.81,6.32,4.81,6.32l7.61-32.86Z"/><polygon class="cls-23" points="536.03 315.57 534.29 314.76 533.5 307.61 530.9 313.17 529.16 312.36 533.11 303.9 534.86 304.72 535.64 311.88 538.25 306.31 539.99 307.12 536.03 315.57"/></g><g><polyline class="cls-3" points="500.68 84.09 500.68 69.4 509.78 69.4 509.78 84.09"/><polyline class="cls-3" points="509.78 84.09 509.78 69.4 518.88 69.4 518.88 84.09"/><polyline class="cls-3" points="518.88 84.09 518.88 69.4 527.98 69.4 527.98 84.09"/></g><g><polyline class="cls-3" points="527.98 84.09 527.98 69.4 537.08 69.4 537.08 84.09"/><polyline class="cls-3" points="537.08 84.09 537.08 69.4 546.18 69.4 546.18 84.09"/><polyline class="cls-3" points="546.18 84.09 546.18 69.4 555.28 69.4 555.28 84.09"/></g><g><polyline class="cls-3" points="555.28 84.09 555.28 69.4 564.38 69.4 564.38 84.09"/><polyline class="cls-3" points="564.38 84.09 564.38 69.4 573.48 69.4 573.48 84.09"/><polyline class="cls-3" points="573.48 84.09 573.48 69.4 582.58 69.4 582.58 84.09"/></g><g><polyline class="cls-3" points="582.58 84.09 582.58 69.4 591.68 69.4 591.68 84.09"/><polyline class="cls-3" points="591.68 84.09 591.68 69.4 600.78 69.4 600.78 84.09"/><polyline class="cls-3" points="600.78 84.09 600.78 69.4 609.88 69.4 609.88 84.09"/></g><g><polyline class="cls-3" points="609.88 84.09 609.88 69.4 618.99 69.4 618.99 84.09"/><polyline class="cls-3" points="618.99 84.09 618.99 69.4 628.09 69.4 628.09 84.09"/></g><polyline class="cls-3" points="360.67 137.64 360.67 122.95 369.77 122.95 369.77 137.64"/><g><polyline class="cls-3" points="369.77 137.64 369.77 122.95 378.87 122.95 378.87 137.64"/><polyline class="cls-3" points="378.87 137.64 378.87 122.95 387.98 122.95 387.98 137.64"/><polyline class="cls-3" points="387.98 137.64 387.98 122.95 397.08 122.95 397.08 137.64"/></g><g><polyline class="cls-3" points="397.08 137.64 397.08 122.95 406.18 122.95 406.18 137.64"/><polyline class="cls-3" points="406.18 137.64 406.18 122.95 415.28 122.95 415.28 137.64"/><polyline class="cls-3" points="415.28 137.64 415.28 122.95 424.38 122.95 424.38 137.64"/></g><g><polyline class="cls-3" points="424.38 137.64 424.38 122.95 433.48 122.95 433.48 137.64"/><polyline class="cls-3" points="433.48 137.64 433.48 122.95 442.58 122.95 442.58 137.64"/><polyline class="cls-3" points="442.58 137.64 442.58 122.95 451.68 122.95 451.68 137.64"/></g><g><polyline class="cls-3" points="451.68 137.64 451.68 122.95 460.78 122.95 460.78 137.64"/><polyline class="cls-3" points="460.78 137.64 460.78 122.95 469.88 122.95 469.88 137.64"/></g><polyline class="cls-3" points="236.68 137.64 236.68 122.95 245.79 122.95 245.79 137.64"/><g><polyline class="cls-3" points="245.79 137.64 245.79 122.95 254.89 122.95 254.89 137.64"/><polyline class="cls-3" points="254.89 137.64 254.89 122.95 263.99 122.95 263.99 137.64"/><polyline class="cls-3" points="263.99 137.64 263.99 122.95 273.09 122.95 273.09 137.64"/></g><g><polyline class="cls-3" points="273.09 137.64 273.09 122.95 282.19 122.95 282.19 137.64"/><polyline class="cls-3" points="282.19 137.64 282.19 122.95 291.29 122.95 291.29 137.64"/><polyline class="cls-3" points="291.29 137.64 291.29 122.95 300.39 122.95 300.39 137.64"/></g><g><polyline class="cls-3" points="300.39 137.64 300.39 122.95 309.49 122.95 309.49 137.64"/><polyline class="cls-3" points="309.49 137.64 309.49 122.95 318.59 122.95 318.59 137.64"/><polyline class="cls-3" points="318.59 137.64 318.59 122.95 327.69 122.95 327.69 137.64"/></g><polyline class="cls-3" points="327.69 137.64 327.69 122.95 336.79 122.95 336.79 137.64"/><polyline class="cls-3" points="336.79 137.64 336.79 122.95 349.91 122.95 349.91 137.64"/><polyline class="cls-3" points="336.63 164.99 336.63 179.68 323.51 179.68 323.51 164.99"/><polyline class="cls-3" points="349.74 164.99 349.74 179.68 336.63 179.68 336.63 164.99"/><polyline class="cls-3" points="340.74 246.26 346.08 259.94 333.86 264.71 328.52 251.03"/><polyline class="cls-3" points="159.86 137.64 159.86 122.95 172.98 122.95 172.98 137.64"/><polyline class="cls-3" points="92.69 264.37 78 264.37 78 251.25 92.69 251.25"/><g><polyline class="cls-3" points="172.98 137.64 172.98 122.95 182.08 122.95 182.08 137.64"/><polyline class="cls-3" points="182.08 137.64 182.08 122.95 191.18 122.95 191.18 137.64"/></g><g><polyline class="cls-3" points="191.18 137.64 191.18 122.95 200.28 122.95 200.28 137.64"/><polyline class="cls-3" points="200.28 137.64 200.28 122.95 209.38 122.95 209.38 137.64"/><polyline class="cls-3" points="209.38 137.64 209.38 122.95 218.48 122.95 218.48 137.64"/></g><g><polyline class="cls-3" points="218.48 137.64 218.48 122.95 227.58 122.95 227.58 137.64"/><polyline class="cls-3" points="227.58 137.64 227.58 122.95 236.68 122.95 236.68 137.64"/></g><polyline class="cls-3" points="204.09 164.99 204.09 179.68 213.19 179.68 213.19 164.99"/><g><polyline class="cls-3" points="213.19 164.99 213.19 179.68 222.29 179.68 222.29 164.99"/><polyline class="cls-3" points="222.29 164.99 222.29 179.68 231.4 179.68 231.4 164.99"/><polyline class="cls-3" points="231.4 164.99 231.4 179.68 240.5 179.68 240.5 164.99"/></g><polyline class="cls-3" points="240.5 164.99 240.5 179.68 249.6 179.68 249.6 164.99"/><g><polyline class="cls-3" points="158.59 164.99 158.59 179.68 167.69 179.68 167.69 164.99"/><polyline class="cls-3" points="167.69 164.99 167.69 179.68 176.79 179.68 176.79 164.99"/><polyline class="cls-3" points="176.79 164.99 176.79 179.68 185.89 179.68 185.89 164.99"/></g><g><polyline class="cls-3" points="185.89 164.99 185.89 179.68 194.99 179.68 194.99 164.99"/><polyline class="cls-3" points="194.99 164.99 194.99 179.68 204.09 179.68 204.09 164.99"/></g><polyline class="cls-3" points="92.69 162.24 78 162.24 78 171.34 92.69 171.34"/><polyline class="cls-3" points="92.69 171.34 78 171.34 78 180.44 92.69 180.44"/><g><polyline class="cls-3" points="92.69 144.04 78 144.04 78 153.14 92.69 153.14"/><polyline class="cls-3" points="92.69 153.14 78 153.14 78 162.24 92.69 162.24"/></g><g><polyline class="cls-3" points="92.69 233.05 78 233.05 78 242.15 92.69 242.15"/><polyline class="cls-3" points="92.69 242.15 78 242.15 78 251.25 92.69 251.25"/></g><polyline class="cls-3" points="296.21 164.99 296.21 179.68 305.31 179.68 305.31 164.99"/><g><polyline class="cls-3" points="305.31 164.99 305.31 179.68 314.41 179.68 314.41 164.99"/><polyline class="cls-3" points="314.41 164.99 314.41 179.68 323.51 179.68 323.51 164.99"/></g><g><polyline class="cls-3" points="278.01 164.99 278.01 179.68 287.11 179.68 287.11 164.99"/><polyline class="cls-3" points="287.11 164.99 287.11 179.68 296.21 179.68 296.21 164.99"/></g><polyline class="cls-3" points="143.53 137.64 143.53 122.95 152.63 122.95 152.63 137.64"/><g><polyline class="cls-3" points="98.03 137.64 98.03 122.95 107.13 122.95 107.13 137.64"/><polyline class="cls-3" points="107.13 137.64 107.13 122.95 116.23 122.95 116.23 137.64"/><polyline class="cls-3" points="116.23 137.64 116.23 122.95 125.33 122.95 125.33 137.64"/></g><g><polyline class="cls-3" points="125.33 137.64 125.33 122.95 134.43 122.95 134.43 137.64"/><polyline class="cls-3" points="134.43 137.64 134.43 122.95 143.53 122.95 143.53 137.64"/></g><g><polyline class="cls-3" points="152.63 164.99 152.63 179.68 143.53 179.68 143.53 164.99"/><polyline class="cls-3" points="143.53 164.99 143.53 179.68 134.43 179.68 134.43 164.99"/><polyline class="cls-3" points="134.43 164.99 134.43 179.68 125.33 179.68 125.33 164.99"/></g><g><polyline class="cls-3" points="149.95 223.22 149.95 237.91 140.85 237.91 140.85 223.22"/><polyline class="cls-3" points="140.85 223.22 140.85 237.91 131.75 237.91 131.75 223.22"/><polyline class="cls-3" points="131.75 223.22 131.75 237.91 122.65 237.91 122.65 223.22"/></g><g><polyline class="cls-3" points="182.95 223.22 182.95 237.91 173.84 237.91 173.84 223.22"/><polyline class="cls-3" points="173.84 223.22 173.84 237.91 164.74 237.91 164.74 223.22"/><polyline class="cls-3" points="164.74 223.22 164.74 237.91 155.64 237.91 155.64 223.22"/></g><g><polyline class="cls-3" points="210.25 223.22 210.25 237.91 201.15 237.91 201.15 223.22"/><polyline class="cls-3" points="201.15 223.22 201.15 237.91 192.05 237.91 192.05 223.22"/><polyline class="cls-3" points="192.05 223.22 192.05 237.91 182.95 237.91 182.95 223.22"/></g><g><polyline class="cls-3" points="237.55 223.22 237.55 237.91 228.45 237.91 228.45 223.22"/><polyline class="cls-3" points="228.45 223.22 228.45 237.91 219.35 237.91 219.35 223.22"/><polyline class="cls-3" points="219.35 223.22 219.35 237.91 210.25 237.91 210.25 223.22"/></g><polyline class="cls-3" points="246.65 223.22 246.65 237.91 237.55 237.91 237.55 223.22"/><g><polyline class="cls-3" points="250.06 322.71 235.37 322.71 235.37 313.61 250.06 313.61"/><polyline class="cls-3" points="250.06 313.61 235.37 313.61 235.37 304.51 250.06 304.51"/><polyline class="cls-3" points="250.06 304.51 235.37 304.51 235.37 295.41 250.06 295.41"/></g><g><polyline class="cls-3" points="250.06 350.01 235.37 350.01 235.37 340.91 250.06 340.91"/><polyline class="cls-3" points="250.06 340.91 235.37 340.91 235.37 331.81 250.06 331.81"/><polyline class="cls-3" points="250.06 331.81 235.37 331.81 235.37 322.71 250.06 322.71"/></g><polyline class="cls-3" points="250.06 359.11 235.37 359.11 235.37 350.01 250.06 350.01"/><polyline class="cls-3" points="285.56 251.33 285.56 266.02 276.46 266.02 276.46 251.33"/><g><polyline class="cls-3" points="312.86 251.33 312.86 266.02 303.76 266.02 303.76 251.33"/><polyline class="cls-3" points="303.76 251.33 303.76 266.02 294.66 266.02 294.66 251.33"/><polyline class="cls-3" points="294.66 251.33 294.66 266.02 285.56 266.02 285.56 251.33"/></g><polyline class="cls-3" points="321.97 251.33 321.97 266.02 312.86 266.02 312.86 251.33"/><polyline class="cls-3" points="312.86 225.82 312.86 211.13 321.97 211.13 321.97 225.82"/><g><polyline class="cls-3" points="285.56 225.82 285.56 211.13 294.66 211.13 294.66 225.82"/><polyline class="cls-3" points="294.66 225.82 294.66 211.13 303.76 211.13 303.76 225.82"/><polyline class="cls-3" points="303.76 225.82 303.76 211.13 312.86 211.13 312.86 225.82"/></g><polyline class="cls-3" points="276.46 225.82 276.46 211.13 285.56 211.13 285.56 225.82"/><g><polyline class="cls-3" points="338.96 220.55 333.17 207.05 341.54 203.46 347.33 216.96"/><polyline class="cls-3" points="347.33 216.96 341.54 203.46 349.9 199.88 355.69 213.38"/></g><polyline class="cls-3" points="330.6 224.13 324.81 210.63 333.17 207.05 338.96 220.55"/><g><polyline class="cls-3" points="357.69 239.64 363.03 253.33 354.55 256.64 349.21 242.95"/><polyline class="cls-3" points="349.21 242.95 354.55 256.64 346.08 259.94 340.74 246.26"/></g><polyline class="cls-3" points="366.17 236.33 371.51 250.02 363.03 253.33 357.69 239.64"/><g><polyline class="cls-3" points="391.64 226.14 396.98 239.82 388.51 243.13 383.16 229.45"/><polyline class="cls-3" points="383.16 229.45 388.51 243.13 380.03 246.44 374.69 232.75"/></g><polyline class="cls-3" points="400.12 222.83 405.46 236.51 396.98 239.82 391.64 226.14"/><g><polyline class="cls-3" points="417.08 216.21 422.42 229.89 413.94 233.2 408.6 219.52"/><polyline class="cls-3" points="408.6 219.52 413.94 233.2 405.46 236.51 400.12 222.83"/></g><polyline class="cls-3" points="425.55 212.9 430.89 226.59 422.42 229.89 417.08 216.21"/><g><polyline class="cls-3" points="442.51 206.28 447.85 219.97 439.37 223.28 434.03 209.59"/><polyline class="cls-3" points="434.03 209.59 439.37 223.28 430.89 226.59 425.55 212.9"/></g><polyline class="cls-3" points="450.99 202.97 456.33 216.66 447.85 219.97 442.51 206.28"/><g><polyline class="cls-3" points="467.94 196.36 473.28 210.04 464.81 213.35 459.47 199.67"/><polyline class="cls-3" points="459.47 199.67 464.81 213.35 456.33 216.66 450.99 202.97"/></g><g><polyline class="cls-3" points="629.94 84.82 644.63 84.82 644.63 93.92 629.94 93.92"/><polyline class="cls-3" points="629.94 93.92 644.63 93.92 644.63 103.02 629.94 103.02"/><polyline class="cls-3" points="629.94 103.02 644.63 103.02 644.63 112.12 629.94 112.12"/></g><g><polyline class="cls-3" points="629.94 148.11 644.63 148.11 644.63 157.21 629.94 157.21"/><polyline class="cls-3" points="629.94 157.21 644.63 157.21 644.63 166.31 629.94 166.31"/><polyline class="cls-3" points="629.94 166.31 644.63 166.31 644.63 175.41 629.94 175.41"/></g><g><polyline class="cls-3" points="629.94 175.41 644.63 175.41 644.63 184.51 629.94 184.51"/><polyline class="cls-3" points="629.94 184.51 644.63 184.51 644.63 193.61 629.94 193.61"/><polyline class="cls-3" points="629.94 193.61 644.63 193.61 644.63 202.71 629.94 202.71"/></g><polyline class="cls-3" points="629.94 202.71 644.63 202.71 644.63 211.81 629.94 211.81"/><polyline class="cls-3" points="551.14 103.74 551.14 118.43 542.04 118.43 542.04 103.74"/><g><polyline class="cls-3" points="542.04 103.74 542.04 118.43 532.94 118.43 532.94 103.74"/><polyline class="cls-3" points="532.94 103.74 532.94 118.43 523.84 118.43 523.84 103.74"/><polyline class="cls-3" points="523.84 103.74 523.84 118.43 514.73 118.43 514.73 103.74"/></g><polyline class="cls-3" points="514.73 103.74 514.73 118.43 505.63 118.43 505.63 103.74"/><g><polyline class="cls-3" points="575.33 103.54 590.02 103.54 590.02 112.64 575.33 112.64"/><polyline class="cls-3" points="575.33 112.64 590.02 112.64 590.02 121.74 575.33 121.74"/><polyline class="cls-3" points="575.33 121.74 590.02 121.74 590.02 130.84 575.33 130.84"/></g><g><polyline class="cls-3" points="575.33 130.84 590.02 130.84 590.02 139.94 575.33 139.94"/><polyline class="cls-3" points="575.33 139.94 590.02 139.94 590.02 149.05 575.33 149.05"/><polyline class="cls-3" points="575.33 149.05 590.02 149.05 590.02 158.15 575.33 158.15"/></g><g><polyline class="cls-3" points="471.42 139.52 486.11 139.52 486.11 148.62 471.42 148.62"/><polyline class="cls-3" points="471.42 148.62 486.11 148.62 486.11 157.72 471.42 157.72"/><polyline class="cls-3" points="471.42 157.72 486.11 157.72 486.11 166.82 471.42 166.82"/></g><g><polyline class="cls-3" points="471.42 166.82 486.11 166.82 486.11 175.92 471.42 175.92"/><polyline class="cls-3" points="471.42 175.92 486.11 175.92 486.11 185.02 471.42 185.02"/><polyline class="cls-3" points="471.42 185.02 486.11 185.02 486.11 194.12 471.42 194.12"/></g><polyline class="cls-3" points="575.33 158.15 590.02 158.15 590.02 167.25 575.33 167.25"/><g><polyline class="cls-3" points="575.33 167.25 590.02 167.25 590.02 176.35 575.33 176.35"/><polyline class="cls-3" points="575.33 176.35 590.02 176.35 590.02 185.45 575.33 185.45"/><polyline class="cls-3" points="575.33 185.45 590.02 185.45 590.02 194.55 575.33 194.55"/></g><g><polyline class="cls-3" points="575.33 194.55 590.02 194.55 590.02 203.65 575.33 203.65"/><polyline class="cls-3" points="575.33 203.65 590.02 203.65 590.02 212.75 575.33 212.75"/></g><g><polyline class="cls-3" points="604.71 103.54 590.02 103.54 590.02 112.64 604.71 112.64"/><polyline class="cls-3" points="604.71 112.64 590.02 112.64 590.02 121.74 604.71 121.74"/><polyline class="cls-3" points="604.71 121.74 590.02 121.74 590.02 130.84 604.71 130.84"/></g><g><polyline class="cls-3" points="604.71 130.84 590.02 130.84 590.02 139.94 604.71 139.94"/><polyline class="cls-3" points="604.71 139.94 590.02 139.94 590.02 149.05 604.71 149.05"/><polyline class="cls-3" points="604.71 149.05 590.02 149.05 590.02 158.15 604.71 158.15"/></g><g><polyline class="cls-3" points="551.67 186.64 536.98 186.64 536.98 195.74 551.67 195.74"/><polyline class="cls-3" points="551.67 195.74 536.98 195.74 536.98 204.84 551.67 204.84"/><polyline class="cls-3" points="551.67 204.84 536.98 204.84 536.98 213.94 551.67 213.94"/></g><g><polyline class="cls-3" points="551.67 213.94 536.98 213.94 536.98 223.04 551.67 223.04"/><polyline class="cls-3" points="551.67 223.04 536.98 223.04 536.98 232.14 551.67 232.14"/><polyline class="cls-3" points="551.67 232.14 536.98 232.14 536.98 241.24 551.67 241.24"/></g><polyline class="cls-3" points="551.67 241.24 536.98 241.24 536.98 250.34 551.67 250.34"/><polyline class="cls-3" points="604.71 158.15 590.02 158.15 590.02 167.25 604.71 167.25"/><g><polyline class="cls-3" points="604.71 167.25 590.02 167.25 590.02 176.35 604.71 176.35"/><polyline class="cls-3" points="604.71 176.35 590.02 176.35 590.02 185.45 604.71 185.45"/><polyline class="cls-3" points="604.71 185.45 590.02 185.45 590.02 194.55 604.71 194.55"/></g><g><polyline class="cls-3" points="604.71 194.55 590.02 194.55 590.02 203.65 604.71 203.65"/><polyline class="cls-3" points="604.71 203.65 590.02 203.65 590.02 212.75 604.71 212.75"/></g><polyline class="cls-3" points="629.94 112.12 644.63 112.12 644.63 121.22 629.94 121.22"/><path class="cls-22" d="M42.25,414.9c-11.81,0-21.38-9.57-21.38-21.38V21.38C20.87,9.57,30.44,0,42.25,0s21.38,9.57,21.38,21.38V393.52c0,11.81-9.57,21.38-21.38,21.38Z"/><path class="cls-22" d="M677.42,65.76H12.58c-6.95,0-12.58-5.63-12.58-12.58s5.63-12.58,12.58-12.58H677.42c6.95,0,12.58,5.63,12.58,12.58s-5.63,12.58-12.58,12.58Z"/><path class="cls-22" d="M660.69,267.89c-6.95,0-12.58-5.63-12.58-12.58V24.73c0-6.95,5.63-12.58,12.58-12.58s12.58,5.63,12.58,12.58V255.31c0,6.95-5.63,12.58-12.58,12.58Z"/><path class="cls-2" d="M648.11,122.56v-49.67c0-3.92-3.21-7.13-7.13-7.13H70.77c-3.92,0-7.13,3.21-7.13,7.13v120"/><path class="cls-2" d="M63.64,222.51v140.95c0,3.92,3.19,7.46,7.09,7.87l135.72,14.09c3.9,.41,10.08-.45,13.72-1.89l421.31-166.93c3.65-1.44,6.63-5.84,6.63-9.76v-60.08"/><polygon class="cls-26" points="401.64 166.68 357.16 166.68 357.16 186.78 357.16 194.07 401.64 194.07 401.64 166.68"/><rect class="cls-26" x="78.17" y="278.06" width="150.59" height="86.34"/></g><g id="_建物"><rect class="cls-16" x="500.4" y="124.37" width="45.18" height="56.22"/><rect class="cls-16" x="440.77" y="64.22" width="45.18" height="56.22" transform="translate(371.02 555.69) rotate(-90)"/><rect class="cls-16" x="453.83" y="221.95" width="45.18" height="56.22" transform="translate(419.43 785.08) rotate(-111.61)"/><rect class="cls-16" x="401.56" y="242.65" width="45.18" height="56.22" transform="translate(328.66 764.83) rotate(-111.61)"/><rect class="cls-16" x="349.29" y="263.36" width="45.18" height="56.22" transform="translate(237.88 744.57) rotate(-111.61)"/><rect class="cls-16" x="374.51" y="64.22" width="45.18" height="56.22" transform="translate(304.76 489.43) rotate(-90)"/><rect class="cls-16" x="283.07" y="276.51" width="45.18" height="56.22" transform="translate(1.04 610.28) rotate(-90)"/><rect class="cls-16" x="308.24" y="64.22" width="45.18" height="56.22" transform="translate(238.5 423.17) rotate(-90)"/><rect class="cls-16" x="241.98" y="64.22" width="45.18" height="56.22" transform="translate(172.24 356.9) rotate(-90)"/><rect class="cls-16" x="175.72" y="64.22" width="45.18" height="56.22" transform="translate(105.98 290.64) rotate(-90)"/><rect class="cls-16" x="109.46" y="64.22" width="45.18" height="56.22" transform="translate(39.72 224.38) rotate(-90)"/></g><g id="_文字"><text class="cls-7" transform="translate(365.19 179.58)"><tspan class="cls-28" x="0" y="0">イ</tspan><tspan class="cls-41" x="6.9" y="0">ン</tspan><tspan class="cls-82" x="13.61" y="0">フ</tspan><tspan class="cls-30" x="20" y="0">ォ</tspan><tspan class="cls-83" x="-4.32" y="8">メ</tspan><tspan class="cls-5" x="3.07" y="8">ー</tspan><tspan class="cls-42" x="10.76" y="8">シ</tspan><tspan class="cls-31" x="17.21" y="8">ョ</tspan><tspan class="cls-81" x="23.74" y="8">ン</tspan></text><text class="cls-10" transform="translate(606.2 174.61)"><tspan x="0" y="0">関係者</tspan><tspan x="0" y="8">駐車場</tspan></text><g><g class="cls-85"><g class="cls-19"><g class="cls-32"><path d="M532.7,199.17c0,.39-.34,.74-.4,1.11-.05,.38,.18,.82,.07,1.18-.11,.37-.54,.61-.7,.95-.16,.35-.06,.83-.27,1.15-.21,.32-.69,.43-.94,.72-.25,.29-.29,.78-.58,1.03-.29,.25-.78,.22-1.1,.43-.32,.2-.5,.67-.84,.82-.34,.16-.81,0-1.18,.1-.36,.11-.66,.5-1.04,.55-.37,.05-.77-.24-1.16-.24s-.79,.29-1.16,.24c-.38-.05-.68-.45-1.04-.55-.37-.11-.83,.06-1.18-.1-.35-.16-.53-.62-.84-.82-.32-.21-.81-.18-1.1-.43-.29-.25-.33-.74-.58-1.03-.25-.29-.73-.4-.94-.72-.2-.32-.11-.8-.27-1.15-.16-.34-.59-.59-.7-.95-.11-.36,.12-.8,.07-1.18-.05-.37-.4-.73-.4-1.11s.34-.74,.4-1.11c.05-.38-.18-.82-.07-1.18,.11-.37,.54-.61,.7-.95,.16-.35,.06-.83,.27-1.15,.21-.32,.69-.43,.94-.72,.25-.29,.29-.78,.58-1.03,.29-.25,.78-.22,1.1-.43,.32-.2,.5-.67,.84-.82,.34-.16,.81,0,1.18-.1,.36-.11,.66-.5,1.04-.55,.37-.05,.77,.24,1.16,.24s.79-.29,1.16-.24c.38,.05,.68,.45,1.04,.55,.37,.11,.83-.06,1.18,.1,.35,.16,.53,.62,.84,.82,.32,.21,.81,.18,1.1,.43,.29,.25,.33,.74,.58,1.03,.25,.29,.73,.4,.94,.72,.2,.32,.11,.8,.27,1.15,.16,.34,.59,.59,.7,.95,.11,.36-.12,.8-.07,1.18,.05,.37,.4,.73,.4,1.11"/></g></g></g><path class="cls-24" d="M531.24,197.55c0,.61-.7,1.13-.83,1.7-.13,.59,.27,1.36,0,1.89-.26,.54-1.12,.71-1.49,1.17-.37,.47-.35,1.34-.81,1.71-.46,.37-1.31,.15-1.85,.41-.53,.26-.89,1.05-1.47,1.19-.57,.13-1.23-.43-1.84-.43s-1.27,.56-1.84,.43c-.59-.13-.94-.93-1.48-1.19-.54-.26-1.38-.04-1.85-.41-.47-.37-.44-1.24-.81-1.71-.37-.46-1.23-.63-1.49-1.17-.26-.53,.14-1.3,0-1.89-.13-.57-.83-1.09-.83-1.7s.7-1.13,.83-1.7c.13-.59-.26-1.36,0-1.89,.26-.54,1.12-.71,1.49-1.17,.37-.47,.35-1.34,.81-1.71,.46-.37,1.31-.15,1.85-.41,.53-.26,.89-1.05,1.47-1.19,.57-.13,1.23,.43,1.84,.43s1.27-.56,1.84-.43c.59,.13,.94,.93,1.48,1.19,.54,.26,1.38,.04,1.85,.41,.47,.37,.44,1.24,.81,1.71,.37,.46,1.23,.63,1.49,1.17,.26,.53-.14,1.3,0,1.89,.13,.57,.83,1.09,.83,1.7"/></g><g><g class="cls-85"><g class="cls-35"><g class="cls-34"><path d="M83.86,77.97c0,.39-.34,.74-.4,1.11-.05,.38,.18,.82,.07,1.18-.11,.37-.54,.61-.7,.95-.16,.35-.06,.83-.27,1.15-.21,.32-.69,.43-.94,.72-.25,.29-.29,.78-.58,1.03-.29,.25-.78,.22-1.1,.43-.32,.2-.5,.67-.84,.82-.34,.16-.81,0-1.18,.1-.36,.11-.66,.5-1.04,.55-.37,.05-.77-.24-1.16-.24s-.79,.29-1.16,.24c-.38-.05-.68-.45-1.04-.55-.37-.11-.83,.06-1.18-.1-.35-.16-.53-.62-.84-.82-.32-.21-.81-.18-1.1-.43-.29-.25-.33-.74-.58-1.03-.25-.29-.73-.4-.94-.72-.2-.32-.11-.8-.27-1.15-.16-.34-.59-.59-.7-.95-.11-.36,.12-.8,.07-1.18-.05-.37-.4-.73-.4-1.11s.34-.74,.4-1.11c.05-.38-.18-.82-.07-1.18,.11-.37,.54-.61,.7-.95,.16-.35,.06-.83,.27-1.15,.21-.32,.69-.43,.94-.72,.25-.29,.29-.78,.58-1.03,.29-.25,.78-.22,1.1-.43,.32-.2,.5-.67,.84-.82,.34-.16,.81,0,1.18-.1,.36-.11,.66-.5,1.04-.55,.37-.05,.77,.24,1.16,.24s.79-.29,1.16-.24c.38,.05,.68,.45,1.04,.55,.37,.11,.83-.06,1.18,.1,.35,.16,.53,.62,.84,.82,.32,.21,.81,.18,1.1,.43,.29,.25,.33,.74,.58,1.03,.25,.29,.73,.4,.94,.72,.2,.32,.11,.8,.27,1.15,.16,.34,.59,.59,.7,.95,.11,.36-.12,.8-.07,1.18,.05,.37,.4,.73,.4,1.11"/></g></g></g><path class="cls-24" d="M82.4,76.35c0,.61-.7,1.13-.83,1.7-.13,.59,.27,1.36,0,1.89-.26,.54-1.12,.71-1.49,1.17-.37,.47-.35,1.34-.81,1.71-.46,.37-1.31,.15-1.85,.41-.53,.26-.89,1.05-1.47,1.19-.57,.13-1.23-.43-1.84-.43s-1.27,.56-1.84,.43c-.59-.13-.94-.93-1.48-1.19-.54-.26-1.38-.04-1.85-.41-.47-.37-.44-1.24-.81-1.71-.37-.46-1.23-.63-1.49-1.17-.26-.53,.14-1.3,0-1.89-.13-.57-.83-1.09-.83-1.7s.7-1.13,.83-1.7c.13-.59-.26-1.36,0-1.89,.26-.54,1.12-.71,1.49-1.17,.37-.47,.35-1.34,.81-1.71,.46-.37,1.31-.15,1.85-.41,.53-.26,.89-1.05,1.47-1.19,.57-.13,1.23,.43,1.84,.43s1.27-.56,1.84-.43c.59,.13,.94,.93,1.48,1.19,.54,.26,1.38,.04,1.85,.41,.47,.37,.44,1.24,.81,1.71,.37,.46,1.23,.63,1.49,1.17,.26,.53-.14,1.3,0,1.89,.13,.57,.83,1.09,.83,1.7"/></g><g><g class="cls-85"><g class="cls-33"><g class="cls-39"><path d="M92.62,92.41c0,.39-.34,.74-.4,1.11-.05,.38,.18,.82,.07,1.18-.11,.37-.54,.61-.7,.95-.16,.35-.06,.83-.27,1.15-.21,.32-.69,.43-.94,.72-.25,.29-.29,.78-.58,1.03-.29,.25-.78,.22-1.1,.43-.32,.2-.5,.67-.84,.82-.34,.16-.81,0-1.18,.1-.36,.11-.66,.5-1.04,.55-.37,.05-.77-.24-1.16-.24s-.79,.29-1.16,.24c-.38-.05-.68-.45-1.04-.55-.37-.11-.83,.06-1.18-.1-.35-.16-.53-.62-.84-.82-.32-.21-.81-.18-1.1-.43-.29-.25-.33-.74-.58-1.03-.25-.29-.73-.4-.94-.72-.2-.32-.11-.8-.27-1.15-.16-.34-.59-.59-.7-.95-.11-.36,.12-.8,.07-1.18-.05-.37-.4-.73-.4-1.11s.34-.74,.4-1.11c.05-.38-.18-.82-.07-1.18,.11-.37,.54-.61,.7-.95,.16-.35,.06-.83,.27-1.15,.21-.32,.69-.43,.94-.72,.25-.29,.29-.78,.58-1.03,.29-.25,.78-.22,1.1-.43,.32-.2,.5-.67,.84-.82,.34-.16,.81,0,1.18-.1,.36-.11,.66-.5,1.04-.55,.37-.05,.77,.24,1.16,.24s.79-.29,1.16-.24c.38,.05,.68,.45,1.04,.55,.37,.11,.83-.06,1.18,.1,.35,.16,.53,.62,.84,.82,.32,.21,.81,.18,1.1,.43,.29,.25,.33,.74,.58,1.03,.25,.29,.73,.4,.94,.72,.2,.32,.11,.8,.27,1.15,.16,.34,.59,.59,.7,.95,.11,.36-.12,.8-.07,1.18,.05,.37,.4,.73,.4,1.11"/></g></g></g><path class="cls-24" d="M91.16,90.79c0,.61-.7,1.13-.83,1.7-.13,.59,.27,1.36,0,1.89-.26,.54-1.12,.71-1.49,1.17-.37,.47-.35,1.34-.81,1.71-.46,.37-1.31,.15-1.85,.41-.53,.26-.89,1.05-1.47,1.19-.57,.13-1.23-.43-1.84-.43s-1.27,.56-1.84,.43c-.59-.13-.94-.93-1.48-1.19-.54-.26-1.38-.04-1.85-.41-.47-.37-.44-1.24-.81-1.71-.37-.46-1.23-.63-1.49-1.17-.26-.53,.14-1.3,0-1.89-.13-.57-.83-1.09-.83-1.7s.7-1.13,.83-1.7c.13-.59-.26-1.36,0-1.89,.26-.54,1.12-.71,1.49-1.17,.37-.47,.35-1.34,.81-1.71,.46-.37,1.31-.15,1.85-.41,.53-.26,.89-1.05,1.47-1.19,.57-.13,1.23,.43,1.84,.43s1.27-.56,1.84-.43c.59,.13,.94,.93,1.48,1.19,.54,.26,1.38,.04,1.85,.41,.47,.37,.44,1.24,.81,1.71,.37,.46,1.23,.63,1.49,1.17,.26,.53-.14,1.3,0,1.89,.13,.57,.83,1.09,.83,1.7"/></g><g><g class="cls-85"><g class="cls-38"><g class="cls-36"><path d="M84.59,114.83c0,.39-.34,.74-.4,1.11-.05,.38,.18,.82,.07,1.18-.11,.37-.54,.61-.7,.95-.16,.35-.06,.83-.27,1.15-.21,.32-.69,.43-.94,.72-.25,.29-.29,.78-.58,1.03-.29,.25-.78,.22-1.1,.43-.32,.2-.5,.67-.84,.82-.34,.16-.81,0-1.18,.1-.36,.11-.66,.5-1.04,.55-.37,.05-.77-.24-1.16-.24s-.79,.29-1.16,.24c-.38-.05-.68-.45-1.04-.55-.37-.11-.83,.06-1.18-.1-.35-.16-.53-.62-.84-.82-.32-.21-.81-.18-1.1-.43-.29-.25-.33-.74-.58-1.03-.25-.29-.73-.4-.94-.72-.2-.32-.11-.8-.27-1.15-.16-.34-.59-.59-.7-.95-.11-.36,.12-.8,.07-1.18-.05-.37-.4-.73-.4-1.11s.34-.74,.4-1.11c.05-.38-.18-.82-.07-1.18,.11-.37,.54-.61,.7-.95,.16-.35,.06-.83,.27-1.15,.21-.32,.69-.43,.94-.72,.25-.29,.29-.78,.58-1.03,.29-.25,.78-.22,1.1-.43,.32-.2,.5-.67,.84-.82,.34-.16,.81,0,1.18-.1,.36-.11,.66-.5,1.04-.55,.37-.05,.77,.24,1.16,.24s.79-.29,1.16-.24c.38,.05,.68,.45,1.04,.55,.37,.11,.83-.06,1.18,.1,.35,.16,.53,.62,.84,.82,.32,.21,.81,.18,1.1,.43,.29,.25,.33,.74,.58,1.03,.25,.29,.73,.4,.94,.72,.2,.32,.11,.8,.27,1.15,.16,.34,.59,.59,.7,.95,.11,.36-.12,.8-.07,1.18,.05,.37,.4,.73,.4,1.11"/></g></g></g><path class="cls-24" d="M83.12,113.21c0,.61-.7,1.13-.83,1.7-.13,.59,.27,1.36,0,1.89-.26,.54-1.12,.71-1.49,1.17-.37,.47-.35,1.34-.81,1.71-.46,.37-1.31,.15-1.85,.41-.53,.26-.89,1.05-1.47,1.19-.57,.13-1.23-.43-1.84-.43s-1.27,.56-1.84,.43c-.59-.13-.94-.93-1.48-1.19-.54-.26-1.38-.04-1.85-.41-.47-.37-.44-1.24-.81-1.71-.37-.46-1.23-.63-1.49-1.17-.26-.53,.14-1.3,0-1.89-.13-.57-.83-1.09-.83-1.7s.7-1.13,.83-1.7c.13-.59-.26-1.36,0-1.89,.26-.54,1.12-.71,1.49-1.17,.37-.47,.35-1.34,.81-1.71,.46-.37,1.31-.15,1.85-.41,.53-.26,.89-1.05,1.47-1.19,.57-.13,1.23,.43,1.84,.43s1.27-.56,1.84-.43c.59,.13,.94,.93,1.48,1.19,.54,.26,1.38,.04,1.85,.41,.47,.37,.44,1.24,.81,1.71,.37,.46,1.23,.63,1.49,1.17,.26,.53-.14,1.3,0,1.89,.13,.57,.83,1.09,.83,1.7"/></g><g><g class="cls-85"><g class="cls-37"><g class="cls-40"><path d="M528.29,250.1c0,.39-.34,.74-.4,1.11-.05,.38,.18,.82,.07,1.18-.11,.37-.54,.61-.7,.95-.16,.35-.06,.83-.27,1.15-.21,.32-.69,.43-.94,.72-.25,.29-.29,.78-.58,1.03-.29,.25-.78,.22-1.1,.43-.32,.2-.5,.67-.84,.82-.34,.16-.81,0-1.18,.1-.36,.11-.66,.5-1.04,.55-.37,.05-.77-.24-1.16-.24s-.79,.29-1.16,.24c-.38-.05-.68-.45-1.04-.55-.37-.11-.83,.06-1.18-.1-.35-.16-.53-.62-.84-.82-.32-.21-.81-.18-1.1-.43-.29-.25-.33-.74-.58-1.03-.25-.29-.73-.4-.94-.72-.2-.32-.11-.8-.27-1.15-.16-.34-.59-.59-.7-.95-.11-.36,.12-.8,.07-1.18-.05-.37-.4-.73-.4-1.11s.34-.74,.4-1.11c.05-.38-.18-.82-.07-1.18,.11-.37,.54-.61,.7-.95,.16-.35,.06-.83,.27-1.15,.21-.32,.69-.43,.94-.72,.25-.29,.29-.78,.58-1.03,.29-.25,.78-.22,1.1-.43,.32-.2,.5-.67,.84-.82,.34-.16,.81,0,1.18-.1,.36-.11,.66-.5,1.04-.55,.37-.05,.77,.24,1.16,.24s.79-.29,1.16-.24c.38,.05,.68,.45,1.04,.55,.37,.11,.83-.06,1.18,.1,.35,.16,.53,.62,.84,.82,.32,.21,.81,.18,1.1,.43,.29,.25,.33,.74,.58,1.03,.25,.29,.73,.4,.94,.72,.2,.32,.11,.8,.27,1.15,.16,.34,.59,.59,.7,.95,.11,.36-.12,.8-.07,1.18,.05,.37,.4,.73,.4,1.11"/></g></g></g><path class="cls-24" d="M526.83,248.48c0,.61-.7,1.13-.83,1.7-.13,.59,.27,1.36,0,1.89-.26,.54-1.12,.71-1.49,1.17-.37,.47-.35,1.34-.81,1.71-.46,.37-1.31,.15-1.85,.41-.53,.26-.89,1.05-1.47,1.19-.57,.13-1.23-.43-1.84-.43s-1.27,.56-1.84,.43c-.59-.13-.94-.93-1.48-1.19-.54-.26-1.38-.04-1.85-.41-.47-.37-.44-1.24-.81-1.71-.37-.46-1.23-.63-1.49-1.17-.26-.53,.14-1.3,0-1.89-.13-.57-.83-1.09-.83-1.7s.7-1.13,.83-1.7c.13-.59-.26-1.36,0-1.89,.26-.54,1.12-.71,1.49-1.17,.37-.47,.35-1.34,.81-1.71,.46-.37,1.31-.15,1.85-.41,.53-.26,.89-1.05,1.47-1.19,.57-.13,1.23,.43,1.84,.43s1.27-.56,1.84-.43c.59,.13,.94,.93,1.48,1.19,.54,.26,1.38,.04,1.85,.41,.47,.37,.44,1.24,.81,1.71,.37,.46,1.23,.63,1.49,1.17,.26,.53-.14,1.3,0,1.89,.13,.57,.83,1.09,.83,1.7"/></g><g><g class="cls-85"><g class="cls-72"><g class="cls-77"><path d="M292.87,341.96c0,.39-.34,.74-.4,1.11-.05,.38,.18,.82,.07,1.18-.11,.37-.54,.61-.7,.95-.16,.35-.06,.83-.27,1.15-.21,.32-.69,.43-.94,.72-.25,.29-.29,.78-.58,1.03-.29,.25-.78,.22-1.1,.43-.32,.2-.5,.67-.84,.82-.34,.16-.81,0-1.18,.1-.36,.11-.66,.5-1.04,.55-.37,.05-.77-.24-1.16-.24s-.79,.29-1.16,.24c-.38-.05-.68-.45-1.04-.55-.37-.11-.83,.06-1.18-.1-.35-.16-.53-.62-.84-.82-.32-.21-.81-.18-1.1-.43-.29-.25-.33-.74-.58-1.03-.25-.29-.73-.4-.94-.72-.2-.32-.11-.8-.27-1.15-.16-.34-.59-.59-.7-.95-.11-.36,.12-.8,.07-1.18-.05-.37-.4-.73-.4-1.11s.34-.74,.4-1.11c.05-.38-.18-.82-.07-1.18,.11-.37,.54-.61,.7-.95,.16-.35,.06-.83,.27-1.15,.21-.32,.69-.43,.94-.72,.25-.29,.29-.78,.58-1.03,.29-.25,.78-.22,1.1-.43,.32-.2,.5-.67,.84-.82,.34-.16,.81,0,1.18-.1,.36-.11,.66-.5,1.04-.55,.37-.05,.77,.24,1.16,.24s.79-.29,1.16-.24c.38,.05,.68,.45,1.04,.55,.37,.11,.83-.06,1.18,.1,.35,.16,.53,.62,.84,.82,.32,.21,.81,.18,1.1,.43,.29,.25,.33,.74,.58,1.03,.25,.29,.73,.4,.94,.72,.2,.32,.11,.8,.27,1.15,.16,.34,.59,.59,.7,.95,.11,.36-.12,.8-.07,1.18,.05,.37,.4,.73,.4,1.11"/></g></g></g><path class="cls-24" d="M291.4,340.34c0,.61-.7,1.13-.83,1.7-.13,.59,.27,1.36,0,1.89-.26,.54-1.12,.71-1.49,1.17-.37,.47-.35,1.34-.81,1.71-.46,.37-1.31,.15-1.85,.41-.53,.26-.89,1.05-1.47,1.19-.57,.13-1.23-.43-1.84-.43s-1.27,.56-1.84,.43c-.59-.13-.94-.93-1.48-1.19-.54-.26-1.38-.04-1.85-.41-.47-.37-.44-1.24-.81-1.71-.37-.46-1.23-.63-1.49-1.17-.26-.53,.14-1.3,0-1.89-.13-.57-.83-1.09-.83-1.7s.7-1.13,.83-1.7c.13-.59-.26-1.36,0-1.89,.26-.54,1.12-.71,1.49-1.17,.37-.47,.35-1.34,.81-1.71,.46-.37,1.31-.15,1.85-.41,.53-.26,.89-1.05,1.47-1.19,.57-.13,1.23,.43,1.84,.43s1.27-.56,1.84-.43c.59,.13,.94,.93,1.48,1.19,.54,.26,1.38,.04,1.85,.41,.47,.37,.44,1.24,.81,1.71,.37,.46,1.23,.63,1.49,1.17,.26,.53-.14,1.3,0,1.89,.13,.57,.83,1.09,.83,1.7"/></g><g><g class="cls-85"><g class="cls-71"><g class="cls-70"><path d="M513.12,206.07c0,.23-.21,.44-.24,.67-.03,.23,.11,.49,.04,.71-.06,.22-.32,.37-.42,.57-.1,.21-.04,.5-.16,.69-.12,.19-.41,.26-.56,.43-.15,.17-.18,.47-.35,.62-.17,.15-.47,.13-.66,.26-.19,.12-.3,.4-.51,.49-.21,.09-.49,0-.71,.06-.22,.06-.4,.3-.63,.33-.22,.03-.46-.14-.69-.14s-.47,.17-.69,.14c-.23-.03-.41-.27-.63-.33-.22-.06-.5,.03-.71-.06-.21-.1-.32-.37-.51-.49-.19-.12-.49-.11-.66-.26-.17-.15-.2-.45-.35-.62-.15-.17-.44-.24-.56-.43-.12-.19-.06-.48-.16-.69-.09-.21-.35-.35-.42-.57-.06-.22,.07-.48,.04-.71-.03-.22-.24-.44-.24-.67s.21-.44,.24-.67c.03-.23-.11-.49-.04-.71,.06-.22,.32-.37,.42-.57,.1-.21,.04-.5,.16-.69,.12-.19,.41-.26,.56-.43,.15-.17,.18-.47,.35-.62,.17-.15,.47-.13,.66-.26,.19-.12,.3-.4,.51-.49,.21-.09,.49,0,.71-.06,.22-.06,.4-.3,.63-.33,.22-.03,.46,.14,.69,.14s.47-.17,.69-.14c.23,.03,.41,.27,.63,.33,.22,.06,.5-.03,.71,.06,.21,.09,.32,.37,.51,.49,.19,.12,.49,.11,.66,.26,.17,.15,.2,.45,.35,.62,.15,.17,.44,.24,.56,.43,.12,.19,.06,.48,.16,.69,.09,.21,.35,.35,.42,.57,.06,.22-.07,.48-.04,.71,.03,.22,.24,.44,.24,.67"/></g></g></g><path class="cls-24" d="M512.24,205.09c0,.37-.42,.68-.5,1.02-.08,.35,.16,.82,0,1.14-.16,.32-.67,.43-.89,.7-.22,.28-.21,.8-.49,1.03-.28,.22-.78,.09-1.11,.25-.32,.15-.53,.63-.88,.71-.34,.08-.74-.26-1.11-.26s-.76,.34-1.11,.26c-.35-.08-.57-.56-.89-.71-.32-.16-.83-.03-1.11-.25-.28-.22-.26-.75-.49-1.03-.22-.28-.74-.38-.89-.7-.15-.32,.09-.78,0-1.14-.08-.34-.5-.66-.5-1.02s.42-.68,.5-1.02c.08-.35-.16-.82,0-1.14,.16-.32,.67-.43,.89-.7,.22-.28,.21-.8,.49-1.03,.28-.22,.78-.09,1.11-.25,.32-.15,.53-.63,.89-.71,.34-.08,.74,.26,1.11,.26s.76-.34,1.11-.26c.35,.08,.57,.56,.88,.71,.32,.16,.83,.03,1.11,.25,.28,.22,.26,.75,.49,1.03,.22,.28,.74,.38,.89,.7,.15,.32-.09,.78,0,1.14,.08,.34,.5,.66,.5,1.02"/></g><g><g class="cls-85"><g class="cls-69"><g class="cls-73"><path d="M428.79,171.4c0,.23-.21,.44-.24,.67-.03,.23,.11,.49,.04,.71-.06,.22-.32,.37-.42,.57-.1,.21-.04,.5-.16,.69-.12,.19-.41,.26-.56,.43-.15,.17-.18,.47-.35,.62-.17,.15-.47,.13-.66,.26-.19,.12-.3,.4-.51,.49-.21,.09-.49,0-.71,.06-.22,.06-.4,.3-.63,.33-.22,.03-.46-.14-.69-.14s-.47,.17-.69,.14c-.23-.03-.41-.27-.63-.33-.22-.06-.5,.03-.71-.06-.21-.1-.32-.37-.51-.49-.19-.12-.49-.11-.66-.26-.17-.15-.2-.45-.35-.62-.15-.17-.44-.24-.56-.43-.12-.19-.06-.48-.16-.69-.09-.21-.35-.35-.42-.57-.06-.22,.07-.48,.04-.71-.03-.22-.24-.44-.24-.67s.21-.44,.24-.67c.03-.23-.11-.49-.04-.71,.06-.22,.32-.37,.42-.57,.1-.21,.04-.5,.16-.69,.12-.19,.41-.26,.56-.43,.15-.17,.18-.47,.35-.62,.17-.15,.47-.13,.66-.26,.19-.12,.3-.4,.51-.49,.21-.09,.49,0,.71-.06,.22-.06,.4-.3,.63-.33,.22-.03,.46,.14,.69,.14s.47-.17,.69-.14c.23,.03,.41,.27,.63,.33,.22,.06,.5-.03,.71,.06,.21,.09,.32,.37,.51,.49,.19,.12,.49,.11,.66,.26,.17,.15,.2,.45,.35,.62,.15,.17,.44,.24,.56,.43,.12,.19,.06,.48,.16,.69,.09,.21,.35,.35,.42,.57,.06,.22-.07,.48-.04,.71,.03,.22,.24,.44,.24,.67"/></g></g></g><path class="cls-24" d="M427.91,170.42c0,.37-.42,.68-.5,1.02-.08,.35,.16,.82,0,1.14-.16,.32-.67,.43-.89,.7-.22,.28-.21,.8-.49,1.03-.28,.22-.78,.09-1.11,.25-.32,.15-.53,.63-.88,.71-.34,.08-.74-.26-1.11-.26s-.76,.34-1.11,.26c-.35-.08-.57-.56-.89-.71-.32-.16-.83-.03-1.11-.25-.28-.22-.26-.75-.49-1.03-.22-.28-.74-.38-.89-.7-.15-.32,.09-.78,0-1.14-.08-.34-.5-.66-.5-1.02s.42-.68,.5-1.02c.08-.35-.16-.82,0-1.14,.16-.32,.67-.43,.89-.7,.22-.28,.21-.8,.49-1.03,.28-.22,.78-.09,1.11-.25,.32-.15,.53-.63,.89-.71,.34-.08,.74,.26,1.11,.26s.76-.34,1.11-.26c.35,.08,.57,.56,.88,.71,.32,.16,.83,.03,1.11,.25,.28,.22,.26,.75,.49,1.03,.22,.28,.74,.38,.89,.7,.15,.32-.09,.78,0,1.14,.08,.34,.5,.66,.5,1.02"/></g><g><g class="cls-85"><g class="cls-75"><g class="cls-74"><path d="M440.8,175.28c0,.23-.21,.44-.24,.67-.03,.23,.11,.49,.04,.71-.06,.22-.32,.37-.42,.57-.1,.21-.04,.5-.16,.69-.12,.19-.41,.26-.56,.43-.15,.17-.18,.47-.35,.62-.17,.15-.47,.13-.66,.26-.19,.12-.3,.4-.51,.49-.21,.09-.49,0-.71,.06-.22,.06-.4,.3-.63,.33-.22,.03-.46-.14-.69-.14s-.47,.17-.69,.14c-.23-.03-.41-.27-.63-.33-.22-.06-.5,.03-.71-.06-.21-.1-.32-.37-.51-.49-.19-.12-.49-.11-.66-.26-.17-.15-.2-.45-.35-.62-.15-.17-.44-.24-.56-.43-.12-.19-.06-.48-.16-.69-.09-.21-.35-.35-.42-.57-.06-.22,.07-.48,.04-.71-.03-.22-.24-.44-.24-.67s.21-.44,.24-.67c.03-.23-.11-.49-.04-.71,.06-.22,.32-.37,.42-.57,.1-.21,.04-.5,.16-.69,.12-.19,.41-.26,.56-.43,.15-.17,.18-.47,.35-.62,.17-.15,.47-.13,.66-.26,.19-.12,.3-.4,.51-.49,.21-.09,.49,0,.71-.06,.22-.06,.4-.3,.63-.33,.22-.03,.46,.14,.69,.14s.47-.17,.69-.14c.23,.03,.41,.27,.63,.33,.22,.06,.5-.03,.71,.06,.21,.09,.32,.37,.51,.49,.19,.12,.49,.11,.66,.26,.17,.15,.2,.45,.35,.62,.15,.17,.44,.24,.56,.43,.12,.19,.06,.48,.16,.69,.09,.21,.35,.35,.42,.57,.06,.22-.07,.48-.04,.71,.03,.22,.24,.44,.24,.67"/></g></g></g><path class="cls-24" d="M439.93,174.3c0,.37-.42,.68-.5,1.02-.08,.35,.16,.82,0,1.14-.16,.32-.67,.43-.89,.7-.22,.28-.21,.8-.49,1.03-.28,.22-.78,.09-1.11,.25-.32,.15-.53,.63-.88,.71-.34,.08-.74-.26-1.11-.26s-.76,.34-1.11,.26c-.35-.08-.57-.56-.89-.71-.32-.16-.83-.03-1.11-.25-.28-.22-.26-.75-.49-1.03-.22-.28-.74-.38-.89-.7-.15-.32,.09-.78,0-1.14-.08-.34-.5-.66-.5-1.02s.42-.68,.5-1.02c.08-.35-.16-.82,0-1.14,.16-.32,.67-.43,.89-.7,.22-.28,.21-.8,.49-1.03,.28-.22,.78-.09,1.11-.25,.32-.15,.53-.63,.89-.71,.34-.08,.74,.26,1.11,.26s.76-.34,1.11-.26c.35,.08,.57,.56,.88,.71,.32,.16,.83,.03,1.11,.25,.28,.22,.26,.75,.49,1.03,.22,.28,.74,.38,.89,.7,.15,.32-.09,.78,0,1.14,.08,.34,.5,.66,.5,1.02"/></g><g><g class="cls-85"><g class="cls-78"><g class="cls-76"><path d="M368.77,202.49c0,.23-.21,.44-.24,.67-.03,.23,.11,.49,.04,.71-.06,.22-.32,.37-.42,.57-.1,.21-.04,.5-.16,.69-.12,.19-.41,.26-.56,.43-.15,.17-.18,.47-.35,.62-.17,.15-.47,.13-.66,.26-.19,.12-.3,.4-.51,.49-.21,.09-.49,0-.71,.06-.22,.06-.4,.3-.63,.33-.22,.03-.46-.14-.69-.14s-.47,.17-.69,.14c-.23-.03-.41-.27-.63-.33-.22-.06-.5,.03-.71-.06-.21-.1-.32-.37-.51-.49-.19-.12-.49-.11-.66-.26-.17-.15-.2-.45-.35-.62-.15-.17-.44-.24-.56-.43-.12-.19-.06-.48-.16-.69-.09-.21-.35-.35-.42-.57-.06-.22,.07-.48,.04-.71-.03-.22-.24-.44-.24-.67s.21-.44,.24-.67c.03-.23-.11-.49-.04-.71,.06-.22,.32-.37,.42-.57,.1-.21,.04-.5,.16-.69,.12-.19,.41-.26,.56-.43,.15-.17,.18-.47,.35-.62,.17-.15,.47-.13,.66-.26,.19-.12,.3-.4,.51-.49,.21-.09,.49,0,.71-.06,.22-.06,.4-.3,.63-.33,.22-.03,.46,.14,.69,.14s.47-.17,.69-.14c.23,.03,.41,.27,.63,.33,.22,.06,.5-.03,.71,.06,.21,.09,.32,.37,.51,.49,.19,.12,.49,.11,.66,.26,.17,.15,.2,.45,.35,.62,.15,.17,.44,.24,.56,.43,.12,.19,.06,.48,.16,.69,.09,.21,.35,.35,.42,.57,.06,.22-.07,.48-.04,.71,.03,.22,.24,.44,.24,.67"/></g></g></g><path class="cls-24" d="M367.89,201.52c0,.37-.42,.68-.5,1.02-.08,.35,.16,.82,0,1.14-.16,.32-.67,.43-.89,.7-.22,.28-.21,.8-.49,1.03-.28,.22-.78,.09-1.11,.25-.32,.15-.53,.63-.88,.71-.34,.08-.74-.26-1.11-.26s-.76,.34-1.11,.26c-.35-.08-.57-.56-.89-.71-.32-.16-.83-.03-1.11-.25-.28-.22-.26-.75-.49-1.03-.22-.28-.74-.38-.89-.7-.15-.32,.09-.78,0-1.14-.08-.34-.5-.66-.5-1.02s.42-.68,.5-1.02c.08-.35-.16-.82,0-1.14,.16-.32,.67-.43,.89-.7,.22-.28,.21-.8,.49-1.03,.28-.22,.78-.09,1.11-.25,.32-.15,.53-.63,.89-.71,.34-.08,.74,.26,1.11,.26s.76-.34,1.11-.26c.35,.08,.57,.56,.88,.71,.32,.16,.83,.03,1.11,.25,.28,.22,.26,.75,.49,1.03,.22,.28,.74,.38,.89,.7,.15,.32-.09,.78,0,1.14,.08,.34,.5,.66,.5,1.02"/></g><g><g class="cls-85"><g class="cls-43"><g class="cls-44"><path d="M289.4,201.55c0,.23-.21,.44-.24,.67-.03,.23,.11,.49,.04,.71-.06,.22-.32,.37-.42,.57-.1,.21-.04,.5-.16,.69-.12,.19-.41,.26-.56,.43-.15,.17-.18,.47-.35,.62-.17,.15-.47,.13-.66,.26-.19,.12-.3,.4-.51,.49-.21,.09-.49,0-.71,.06-.22,.06-.4,.3-.63,.33-.22,.03-.46-.14-.69-.14s-.47,.17-.69,.14c-.23-.03-.41-.27-.63-.33-.22-.06-.5,.03-.71-.06-.21-.1-.32-.37-.51-.49-.19-.12-.49-.11-.66-.26-.17-.15-.2-.45-.35-.62-.15-.17-.44-.24-.56-.43-.12-.19-.06-.48-.16-.69-.09-.21-.35-.35-.42-.57-.06-.22,.07-.48,.04-.71-.03-.22-.24-.44-.24-.67s.21-.44,.24-.67c.03-.23-.11-.49-.04-.71,.06-.22,.32-.37,.42-.57,.1-.21,.04-.5,.16-.69,.12-.19,.41-.26,.56-.43,.15-.17,.18-.47,.35-.62,.17-.15,.47-.13,.66-.26,.19-.12,.3-.4,.51-.49,.21-.09,.49,0,.71-.06,.22-.06,.4-.3,.63-.33,.22-.03,.46,.14,.69,.14s.47-.17,.69-.14c.23,.03,.41,.27,.63,.33,.22,.06,.5-.03,.71,.06,.21,.09,.32,.37,.51,.49,.19,.12,.49,.11,.66,.26,.17,.15,.2,.45,.35,.62,.15,.17,.44,.24,.56,.43,.12,.19,.06,.48,.16,.69,.09,.21,.35,.35,.42,.57,.06,.22-.07,.48-.04,.71,.03,.22,.24,.44,.24,.67"/></g></g></g><path class="cls-24" d="M288.53,200.57c0,.37-.42,.68-.5,1.02-.08,.35,.16,.82,0,1.14-.16,.32-.67,.43-.89,.7-.22,.28-.21,.8-.49,1.03-.28,.22-.78,.09-1.11,.25-.32,.15-.53,.63-.88,.71-.34,.08-.74-.26-1.11-.26s-.76,.34-1.11,.26c-.35-.08-.57-.56-.89-.71-.32-.16-.83-.03-1.11-.25-.28-.22-.26-.75-.49-1.03-.22-.28-.74-.38-.89-.7-.15-.32,.09-.78,0-1.14-.08-.34-.5-.66-.5-1.02s.42-.68,.5-1.02c.08-.35-.16-.82,0-1.14,.16-.32,.67-.43,.89-.7,.22-.28,.21-.8,.49-1.03,.28-.22,.78-.09,1.11-.25,.32-.15,.53-.63,.89-.71,.34-.08,.74,.26,1.11,.26s.76-.34,1.11-.26c.35,.08,.57,.56,.88,.71,.32,.16,.83,.03,1.11,.25,.28,.22,.26,.75,.49,1.03,.22,.28,.74,.38,.89,.7,.15,.32-.09,.78,0,1.14,.08,.34,.5,.66,.5,1.02"/></g><g><g class="cls-85"><g class="cls-47"><g class="cls-46"><path d="M298.94,201.55c0,.23-.21,.44-.24,.67-.03,.23,.11,.49,.04,.71-.06,.22-.32,.37-.42,.57-.1,.21-.04,.5-.16,.69-.12,.19-.41,.26-.56,.43-.15,.17-.18,.47-.35,.62-.17,.15-.47,.13-.66,.26-.19,.12-.3,.4-.51,.49-.21,.09-.49,0-.71,.06-.22,.06-.4,.3-.63,.33-.22,.03-.46-.14-.69-.14s-.47,.17-.69,.14c-.23-.03-.41-.27-.63-.33-.22-.06-.5,.03-.71-.06-.21-.1-.32-.37-.51-.49-.19-.12-.49-.11-.66-.26-.17-.15-.2-.45-.35-.62-.15-.17-.44-.24-.56-.43-.12-.19-.06-.48-.16-.69-.09-.21-.35-.35-.42-.57-.06-.22,.07-.48,.04-.71-.03-.22-.24-.44-.24-.67s.21-.44,.24-.67c.03-.23-.11-.49-.04-.71,.06-.22,.32-.37,.42-.57,.1-.21,.04-.5,.16-.69,.12-.19,.41-.26,.56-.43,.15-.17,.18-.47,.35-.62,.17-.15,.47-.13,.66-.26,.19-.12,.3-.4,.51-.49,.21-.09,.49,0,.71-.06,.22-.06,.4-.3,.63-.33,.22-.03,.46,.14,.69,.14s.47-.17,.69-.14c.23,.03,.41,.27,.63,.33,.22,.06,.5-.03,.71,.06,.21,.09,.32,.37,.51,.49,.19,.12,.49,.11,.66,.26,.17,.15,.2,.45,.35,.62,.15,.17,.44,.24,.56,.43,.12,.19,.06,.48,.16,.69,.09,.21,.35,.35,.42,.57,.06,.22-.07,.48-.04,.71,.03,.22,.24,.44,.24,.67"/></g></g></g><path class="cls-24" d="M298.06,200.57c0,.37-.42,.68-.5,1.02-.08,.35,.16,.82,0,1.14-.16,.32-.67,.43-.89,.7-.22,.28-.21,.8-.49,1.03-.28,.22-.78,.09-1.11,.25-.32,.15-.53,.63-.88,.71-.34,.08-.74-.26-1.11-.26s-.76,.34-1.11,.26c-.35-.08-.57-.56-.89-.71-.32-.16-.83-.03-1.11-.25-.28-.22-.26-.75-.49-1.03-.22-.28-.74-.38-.89-.7-.15-.32,.09-.78,0-1.14-.08-.34-.5-.66-.5-1.02s.42-.68,.5-1.02c.08-.35-.16-.82,0-1.14,.16-.32,.67-.43,.89-.7,.22-.28,.21-.8,.49-1.03,.28-.22,.78-.09,1.11-.25,.32-.15,.53-.63,.89-.71,.34-.08,.74,.26,1.11,.26s.76-.34,1.11-.26c.35,.08,.57,.56,.88,.71,.32,.16,.83,.03,1.11,.25,.28,.22,.26,.75,.49,1.03,.22,.28,.74,.38,.89,.7,.15,.32-.09,.78,0,1.14,.08,.34,.5,.66,.5,1.02"/></g><g><g class="cls-85"><g class="cls-45"><g class="cls-48"><path d="M93.33,73.69c0,.23-.21,.44-.24,.67-.03,.23,.11,.49,.04,.71-.06,.22-.32,.37-.42,.57-.1,.21-.04,.5-.16,.69-.12,.19-.41,.26-.56,.43-.15,.17-.18,.47-.35,.62-.17,.15-.47,.13-.66,.26-.19,.12-.3,.4-.51,.49-.21,.09-.49,0-.71,.06-.22,.06-.4,.3-.63,.33-.22,.03-.46-.14-.69-.14s-.47,.17-.69,.14c-.23-.03-.41-.27-.63-.33-.22-.06-.5,.03-.71-.06-.21-.1-.32-.37-.51-.49-.19-.12-.49-.11-.66-.26-.17-.15-.2-.45-.35-.62-.15-.17-.44-.24-.56-.43-.12-.19-.06-.48-.16-.69-.09-.21-.35-.35-.42-.57-.06-.22,.07-.48,.04-.71-.03-.22-.24-.44-.24-.67s.21-.44,.24-.67c.03-.23-.11-.49-.04-.71,.06-.22,.32-.37,.42-.57,.1-.21,.04-.5,.16-.69,.12-.19,.41-.26,.56-.43,.15-.17,.18-.47,.35-.62,.17-.15,.47-.13,.66-.26,.19-.12,.3-.4,.51-.49,.21-.09,.49,0,.71-.06,.22-.06,.4-.3,.63-.33,.22-.03,.46,.14,.69,.14s.47-.17,.69-.14c.23,.03,.41,.27,.63,.33,.22,.06,.5-.03,.71,.06,.21,.09,.32,.37,.51,.49,.19,.12,.49,.11,.66,.26,.17,.15,.2,.45,.35,.62,.15,.17,.44,.24,.56,.43,.12,.19,.06,.48,.16,.69,.09,.21,.35,.35,.42,.57,.06,.22-.07,.48-.04,.71,.03,.22,.24,.44,.24,.67"/></g></g></g><path class="cls-24" d="M92.46,72.71c0,.37-.42,.68-.5,1.02-.08,.35,.16,.82,0,1.14-.16,.32-.67,.43-.89,.7-.22,.28-.21,.8-.49,1.03-.28,.22-.78,.09-1.11,.25-.32,.15-.53,.63-.88,.71-.34,.08-.74-.26-1.11-.26s-.76,.34-1.11,.26c-.35-.08-.57-.56-.89-.71-.32-.16-.83-.03-1.11-.25-.28-.22-.26-.75-.49-1.03-.22-.28-.74-.38-.89-.7-.15-.32,.09-.78,0-1.14-.08-.34-.5-.66-.5-1.02s.42-.68,.5-1.02c.08-.35-.16-.82,0-1.14,.16-.32,.67-.43,.89-.7,.22-.28,.21-.8,.49-1.03,.28-.22,.78-.09,1.11-.25,.32-.15,.53-.63,.89-.71,.34-.08,.74,.26,1.11,.26s.76-.34,1.11-.26c.35,.08,.57,.56,.88,.71,.32,.16,.83,.03,1.11,.25,.28,.22,.26,.75,.49,1.03,.22,.28,.74,.38,.89,.7,.15,.32-.09,.78,0,1.14,.08,.34,.5,.66,.5,1.02"/></g><g><g class="cls-85"><g class="cls-57"><g class="cls-55"><path d="M78.46,129.47c0,.23-.21,.44-.24,.67-.03,.23,.11,.49,.04,.71-.06,.22-.32,.37-.42,.57-.1,.21-.04,.5-.16,.69-.12,.19-.41,.26-.56,.43-.15,.17-.18,.47-.35,.62-.17,.15-.47,.13-.66,.26-.19,.12-.3,.4-.51,.49-.21,.09-.49,0-.71,.06-.22,.06-.4,.3-.63,.33-.22,.03-.46-.14-.69-.14s-.47,.17-.69,.14c-.23-.03-.41-.27-.63-.33-.22-.06-.5,.03-.71-.06-.21-.1-.32-.37-.51-.49-.19-.12-.49-.11-.66-.26-.17-.15-.2-.45-.35-.62-.15-.17-.44-.24-.56-.43-.12-.19-.06-.48-.16-.69-.09-.21-.35-.35-.42-.57-.06-.22,.07-.48,.04-.71-.03-.22-.24-.44-.24-.67s.21-.44,.24-.67c.03-.23-.11-.49-.04-.71,.06-.22,.32-.37,.42-.57,.1-.21,.04-.5,.16-.69,.12-.19,.41-.26,.56-.43,.15-.17,.18-.47,.35-.62,.17-.15,.47-.13,.66-.26,.19-.12,.3-.4,.51-.49,.21-.09,.49,0,.71-.06,.22-.06,.4-.3,.63-.33,.22-.03,.46,.14,.69,.14s.47-.17,.69-.14c.23,.03,.41,.27,.63,.33,.22,.06,.5-.03,.71,.06,.21,.09,.32,.37,.51,.49,.19,.12,.49,.11,.66,.26,.17,.15,.2,.45,.35,.62,.15,.17,.44,.24,.56,.43,.12,.19,.06,.48,.16,.69,.09,.21,.35,.35,.42,.57,.06,.22-.07,.48-.04,.71,.03,.22,.24,.44,.24,.67"/></g></g></g><path class="cls-24" d="M77.58,128.49c0,.37-.42,.68-.5,1.02-.08,.35,.16,.82,0,1.14-.16,.32-.67,.43-.89,.7-.22,.28-.21,.8-.49,1.03-.28,.22-.78,.09-1.11,.25-.32,.15-.53,.63-.88,.71-.34,.08-.74-.26-1.11-.26s-.76,.34-1.11,.26c-.35-.08-.57-.56-.89-.71-.32-.16-.83-.03-1.11-.25-.28-.22-.26-.75-.49-1.03-.22-.28-.74-.38-.89-.7-.15-.32,.09-.78,0-1.14-.08-.34-.5-.66-.5-1.02s.42-.68,.5-1.02c.08-.35-.16-.82,0-1.14,.16-.32,.67-.43,.89-.7,.22-.28,.21-.8,.49-1.03,.28-.22,.78-.09,1.11-.25,.32-.15,.53-.63,.89-.71,.34-.08,.74,.26,1.11,.26s.76-.34,1.11-.26c.35,.08,.57,.56,.88,.71,.32,.16,.83,.03,1.11,.25,.28,.22,.26,.75,.49,1.03,.22,.28,.74,.38,.89,.7,.15,.32-.09,.78,0,1.14,.08,.34,.5,.66,.5,1.02"/></g><g><g class="cls-85"><g class="cls-56"><g class="cls-58"><path d="M75.36,230.75c0,.23-.21,.44-.24,.67-.03,.23,.11,.49,.04,.71-.06,.22-.32,.37-.42,.57-.1,.21-.04,.5-.16,.69-.12,.19-.41,.26-.56,.43-.15,.17-.18,.47-.35,.62-.17,.15-.47,.13-.66,.26-.19,.12-.3,.4-.51,.49-.21,.09-.49,0-.71,.06-.22,.06-.4,.3-.63,.33-.22,.03-.46-.14-.69-.14s-.47,.17-.69,.14c-.23-.03-.41-.27-.63-.33-.22-.06-.5,.03-.71-.06-.21-.1-.32-.37-.51-.49-.19-.12-.49-.11-.66-.26-.17-.15-.2-.45-.35-.62-.15-.17-.44-.24-.56-.43-.12-.19-.06-.48-.16-.69-.09-.21-.35-.35-.42-.57-.06-.22,.07-.48,.04-.71-.03-.22-.24-.44-.24-.67s.21-.44,.24-.67c.03-.23-.11-.49-.04-.71,.06-.22,.32-.37,.42-.57,.1-.21,.04-.5,.16-.69,.12-.19,.41-.26,.56-.43,.15-.17,.18-.47,.35-.62,.17-.15,.47-.13,.66-.26,.19-.12,.3-.4,.51-.49,.21-.09,.49,0,.71-.06,.22-.06,.4-.3,.63-.33,.22-.03,.46,.14,.69,.14s.47-.17,.69-.14c.23,.03,.41,.27,.63,.33,.22,.06,.5-.03,.71,.06,.21,.09,.32,.37,.51,.49,.19,.12,.49,.11,.66,.26,.17,.15,.2,.45,.35,.62,.15,.17,.44,.24,.56,.43,.12,.19,.06,.48,.16,.69,.09,.21,.35,.35,.42,.57,.06,.22-.07,.48-.04,.71,.03,.22,.24,.44,.24,.67"/></g></g></g><path class="cls-24" d="M74.48,229.77c0,.37-.42,.68-.5,1.02-.08,.35,.16,.82,0,1.14-.16,.32-.67,.43-.89,.7-.22,.28-.21,.8-.49,1.03-.28,.22-.78,.09-1.11,.25-.32,.15-.53,.63-.88,.71-.34,.08-.74-.26-1.11-.26s-.76,.34-1.11,.26c-.35-.08-.57-.56-.89-.71-.32-.16-.83-.03-1.11-.25-.28-.22-.26-.75-.49-1.03-.22-.28-.74-.38-.89-.7-.15-.32,.09-.78,0-1.14-.08-.34-.5-.66-.5-1.02s.42-.68,.5-1.02c.08-.35-.16-.82,0-1.14,.16-.32,.67-.43,.89-.7,.22-.28,.21-.8,.49-1.03,.28-.22,.78-.09,1.11-.25,.32-.15,.53-.63,.89-.71,.34-.08,.74,.26,1.11,.26s.76-.34,1.11-.26c.35,.08,.57,.56,.88,.71,.32,.16,.83,.03,1.11,.25,.28,.22,.26,.75,.49,1.03,.22,.28,.74,.38,.89,.7,.15,.32-.09,.78,0,1.14,.08,.34,.5,.66,.5,1.02"/></g><g><g class="cls-85"><g class="cls-66"><g class="cls-68"><path d="M75.36,242.71c0,.23-.21,.44-.24,.67-.03,.23,.11,.49,.04,.71-.06,.22-.32,.37-.42,.57-.1,.21-.04,.5-.16,.69-.12,.19-.41,.26-.56,.43-.15,.17-.18,.47-.35,.62-.17,.15-.47,.13-.66,.26-.19,.12-.3,.4-.51,.49-.21,.09-.49,0-.71,.06-.22,.06-.4,.3-.63,.33-.22,.03-.46-.14-.69-.14s-.47,.17-.69,.14c-.23-.03-.41-.27-.63-.33-.22-.06-.5,.03-.71-.06-.21-.1-.32-.37-.51-.49-.19-.12-.49-.11-.66-.26-.17-.15-.2-.45-.35-.62-.15-.17-.44-.24-.56-.43-.12-.19-.06-.48-.16-.69-.09-.21-.35-.35-.42-.57-.06-.22,.07-.48,.04-.71-.03-.22-.24-.44-.24-.67s.21-.44,.24-.67c.03-.23-.11-.49-.04-.71,.06-.22,.32-.37,.42-.57,.1-.21,.04-.5,.16-.69,.12-.19,.41-.26,.56-.43,.15-.17,.18-.47,.35-.62,.17-.15,.47-.13,.66-.26,.19-.12,.3-.4,.51-.49,.21-.09,.49,0,.71-.06,.22-.06,.4-.3,.63-.33,.22-.03,.46,.14,.69,.14s.47-.17,.69-.14c.23,.03,.41,.27,.63,.33,.22,.06,.5-.03,.71,.06,.21,.09,.32,.37,.51,.49,.19,.12,.49,.11,.66,.26,.17,.15,.2,.45,.35,.62,.15,.17,.44,.24,.56,.43,.12,.19,.06,.48,.16,.69,.09,.21,.35,.35,.42,.57,.06,.22-.07,.48-.04,.71,.03,.22,.24,.44,.24,.67"/></g></g></g><path class="cls-24" d="M74.48,241.74c0,.37-.42,.68-.5,1.02-.08,.35,.16,.82,0,1.14-.16,.32-.67,.43-.89,.7-.22,.28-.21,.8-.49,1.03-.28,.22-.78,.09-1.11,.25-.32,.15-.53,.63-.88,.71-.34,.08-.74-.26-1.11-.26s-.76,.34-1.11,.26c-.35-.08-.57-.56-.89-.71-.32-.16-.83-.03-1.11-.25-.28-.22-.26-.75-.49-1.03-.22-.28-.74-.38-.89-.7-.15-.32,.09-.78,0-1.14-.08-.34-.5-.66-.5-1.02s.42-.68,.5-1.02c.08-.35-.16-.82,0-1.14,.16-.32,.67-.43,.89-.7,.22-.28,.21-.8,.49-1.03,.28-.22,.78-.09,1.11-.25,.32-.15,.53-.63,.89-.71,.34-.08,.74,.26,1.11,.26s.76-.34,1.11-.26c.35,.08,.57,.56,.88,.71,.32,.16,.83,.03,1.11,.25,.28,.22,.26,.75,.49,1.03,.22,.28,.74,.38,.89,.7,.15,.32-.09,.78,0,1.14,.08,.34,.5,.66,.5,1.02"/></g><g><g class="cls-85"><g class="cls-65"><g class="cls-64"><path d="M304.24,339.82c0,.23-.21,.44-.24,.67-.03,.23,.11,.49,.04,.71-.06,.22-.32,.37-.42,.57-.1,.21-.04,.5-.16,.69-.12,.19-.41,.26-.56,.43-.15,.17-.18,.47-.35,.62-.17,.15-.47,.13-.66,.26-.19,.12-.3,.4-.51,.49-.21,.09-.49,0-.71,.06-.22,.06-.4,.3-.63,.33-.22,.03-.46-.14-.69-.14s-.47,.17-.69,.14c-.23-.03-.41-.27-.63-.33-.22-.06-.5,.03-.71-.06-.21-.1-.32-.37-.51-.49-.19-.12-.49-.11-.66-.26-.17-.15-.2-.45-.35-.62-.15-.17-.44-.24-.56-.43-.12-.19-.06-.48-.16-.69-.09-.21-.35-.35-.42-.57-.06-.22,.07-.48,.04-.71-.03-.22-.24-.44-.24-.67s.21-.44,.24-.67c.03-.23-.11-.49-.04-.71,.06-.22,.32-.37,.42-.57,.1-.21,.04-.5,.16-.69,.12-.19,.41-.26,.56-.43,.15-.17,.18-.47,.35-.62,.17-.15,.47-.13,.66-.26,.19-.12,.3-.4,.51-.49,.21-.09,.49,0,.71-.06,.22-.06,.4-.3,.63-.33,.22-.03,.46,.14,.69,.14s.47-.17,.69-.14c.23,.03,.41,.27,.63,.33,.22,.06,.5-.03,.71,.06,.21,.09,.32,.37,.51,.49,.19,.12,.49,.11,.66,.26,.17,.15,.2,.45,.35,.62,.15,.17,.44,.24,.56,.43,.12,.19,.06,.48,.16,.69,.09,.21,.35,.35,.42,.57,.06,.22-.07,.48-.04,.71,.03,.22,.24,.44,.24,.67"/></g></g></g><path class="cls-24" d="M303.36,338.85c0,.37-.42,.68-.5,1.02-.08,.35,.16,.82,0,1.14-.16,.32-.67,.43-.89,.7-.22,.28-.21,.8-.49,1.03-.28,.22-.78,.09-1.11,.25-.32,.15-.53,.63-.88,.71-.34,.08-.74-.26-1.11-.26s-.76,.34-1.11,.26c-.35-.08-.57-.56-.89-.71-.32-.16-.83-.03-1.11-.25-.28-.22-.26-.75-.49-1.03-.22-.28-.74-.38-.89-.7-.15-.32,.09-.78,0-1.14-.08-.34-.5-.66-.5-1.02s.42-.68,.5-1.02c.08-.35-.16-.82,0-1.14,.16-.32,.67-.43,.89-.7,.22-.28,.21-.8,.49-1.03,.28-.22,.78-.09,1.11-.25,.32-.15,.53-.63,.89-.71,.34-.08,.74,.26,1.11,.26s.76-.34,1.11-.26c.35,.08,.57,.56,.88,.71,.32,.16,.83,.03,1.11,.25,.28,.22,.26,.75,.49,1.03,.22,.28,.74,.38,.89,.7,.15,.32-.09,.78,0,1.14,.08,.34,.5,.66,.5,1.02"/></g><g><g class="cls-85"><g class="cls-59"><g class="cls-60"><path d="M211.28,375.74c0,.23-.21,.44-.24,.67-.03,.23,.11,.49,.04,.71-.06,.22-.32,.37-.42,.57-.1,.21-.04,.5-.16,.69-.12,.19-.41,.26-.56,.43-.15,.17-.18,.47-.35,.62-.17,.15-.47,.13-.66,.26-.19,.12-.3,.4-.51,.49-.21,.09-.49,0-.71,.06-.22,.06-.4,.3-.63,.33-.22,.03-.46-.14-.69-.14s-.47,.17-.69,.14c-.23-.03-.41-.27-.63-.33-.22-.06-.5,.03-.71-.06-.21-.1-.32-.37-.51-.49-.19-.12-.49-.11-.66-.26-.17-.15-.2-.45-.35-.62-.15-.17-.44-.24-.56-.43-.12-.19-.06-.48-.16-.69-.09-.21-.35-.35-.42-.57-.06-.22,.07-.48,.04-.71-.03-.22-.24-.44-.24-.67s.21-.44,.24-.67c.03-.23-.11-.49-.04-.71,.06-.22,.32-.37,.42-.57,.1-.21,.04-.5,.16-.69,.12-.19,.41-.26,.56-.43,.15-.17,.18-.47,.35-.62,.17-.15,.47-.13,.66-.26,.19-.12,.3-.4,.51-.49,.21-.09,.49,0,.71-.06,.22-.06,.4-.3,.63-.33,.22-.03,.46,.14,.69,.14s.47-.17,.69-.14c.23,.03,.41,.27,.63,.33,.22,.06,.5-.03,.71,.06,.21,.09,.32,.37,.51,.49,.19,.12,.49,.11,.66,.26,.17,.15,.2,.45,.35,.62,.15,.17,.44,.24,.56,.43,.12,.19,.06,.48,.16,.69,.09,.21,.35,.35,.42,.57,.06,.22-.07,.48-.04,.71,.03,.22,.24,.44,.24,.67"/></g></g></g><path class="cls-24" d="M210.4,374.76c0,.37-.42,.68-.5,1.02-.08,.35,.16,.82,0,1.14-.16,.32-.67,.43-.89,.7-.22,.28-.21,.8-.49,1.03-.28,.22-.78,.09-1.11,.25-.32,.15-.53,.63-.88,.71-.34,.08-.74-.26-1.11-.26s-.76,.34-1.11,.26c-.35-.08-.57-.56-.89-.71-.32-.16-.83-.03-1.11-.25-.28-.22-.26-.75-.49-1.03-.22-.28-.74-.38-.89-.7-.15-.32,.09-.78,0-1.14-.08-.34-.5-.66-.5-1.02s.42-.68,.5-1.02c.08-.35-.16-.82,0-1.14,.16-.32,.67-.43,.89-.7,.22-.28,.21-.8,.49-1.03,.28-.22,.78-.09,1.11-.25,.32-.15,.53-.63,.89-.71,.34-.08,.74,.26,1.11,.26s.76-.34,1.11-.26c.35,.08,.57,.56,.88,.71,.32,.16,.83,.03,1.11,.25,.28,.22,.26,.75,.49,1.03,.22,.28,.74,.38,.89,.7,.15,.32-.09,.78,0,1.14,.08,.34,.5,.66,.5,1.02"/></g><g><g class="cls-85"><g class="cls-61"><g class="cls-62"><path d="M198.82,374.96c0,.23-.21,.44-.24,.67-.03,.23,.11,.49,.04,.71-.06,.22-.32,.37-.42,.57-.1,.21-.04,.5-.16,.69-.12,.19-.41,.26-.56,.43-.15,.17-.18,.47-.35,.62-.17,.15-.47,.13-.66,.26-.19,.12-.3,.4-.51,.49-.21,.09-.49,0-.71,.06-.22,.06-.4,.3-.63,.33-.22,.03-.46-.14-.69-.14s-.47,.17-.69,.14c-.23-.03-.41-.27-.63-.33-.22-.06-.5,.03-.71-.06-.21-.1-.32-.37-.51-.49-.19-.12-.49-.11-.66-.26-.17-.15-.2-.45-.35-.62-.15-.17-.44-.24-.56-.43-.12-.19-.06-.48-.16-.69-.09-.21-.35-.35-.42-.57-.06-.22,.07-.48,.04-.71-.03-.22-.24-.44-.24-.67s.21-.44,.24-.67c.03-.23-.11-.49-.04-.71,.06-.22,.32-.37,.42-.57,.1-.21,.04-.5,.16-.69,.12-.19,.41-.26,.56-.43,.15-.17,.18-.47,.35-.62,.17-.15,.47-.13,.66-.26,.19-.12,.3-.4,.51-.49,.21-.09,.49,0,.71-.06,.22-.06,.4-.3,.63-.33,.22-.03,.46,.14,.69,.14s.47-.17,.69-.14c.23,.03,.41,.27,.63,.33,.22,.06,.5-.03,.71,.06,.21,.09,.32,.37,.51,.49,.19,.12,.49,.11,.66,.26,.17,.15,.2,.45,.35,.62,.15,.17,.44,.24,.56,.43,.12,.19,.06,.48,.16,.69,.09,.21,.35,.35,.42,.57,.06,.22-.07,.48-.04,.71,.03,.22,.24,.44,.24,.67"/></g></g></g><path class="cls-24" d="M197.94,373.99c0,.37-.42,.68-.5,1.02-.08,.35,.16,.82,0,1.14-.16,.32-.67,.43-.89,.7-.22,.28-.21,.8-.49,1.03-.28,.22-.78,.09-1.11,.25-.32,.15-.53,.63-.88,.71-.34,.08-.74-.26-1.11-.26s-.76,.34-1.11,.26c-.35-.08-.57-.56-.89-.71-.32-.16-.83-.03-1.11-.25-.28-.22-.26-.75-.49-1.03-.22-.28-.74-.38-.89-.7-.15-.32,.09-.78,0-1.14-.08-.34-.5-.66-.5-1.02s.42-.68,.5-1.02c.08-.35-.16-.82,0-1.14,.16-.32,.67-.43,.89-.7,.22-.28,.21-.8,.49-1.03,.28-.22,.78-.09,1.11-.25,.32-.15,.53-.63,.89-.71,.34-.08,.74,.26,1.11,.26s.76-.34,1.11-.26c.35,.08,.57,.56,.88,.71,.32,.16,.83,.03,1.11,.25,.28,.22,.26,.75,.49,1.03,.22,.28,.74,.38,.89,.7,.15,.32-.09,.78,0,1.14,.08,.34,.5,.66,.5,1.02"/></g><g><g class="cls-85"><g class="cls-67"><g class="cls-63"><path d="M247.68,273.83c0,.23-.21,.44-.24,.67-.03,.23,.11,.49,.04,.71-.06,.22-.32,.37-.42,.57-.1,.21-.04,.5-.16,.69-.12,.19-.41,.26-.56,.43-.15,.17-.18,.47-.35,.62-.17,.15-.47,.13-.66,.26-.19,.12-.3,.4-.51,.49-.21,.09-.49,0-.71,.06-.22,.06-.4,.3-.63,.33-.22,.03-.46-.14-.69-.14s-.47,.17-.69,.14c-.23-.03-.41-.27-.63-.33-.22-.06-.5,.03-.71-.06-.21-.1-.32-.37-.51-.49-.19-.12-.49-.11-.66-.26-.17-.15-.2-.45-.35-.62-.15-.17-.44-.24-.56-.43-.12-.19-.06-.48-.16-.69-.09-.21-.35-.35-.42-.57-.06-.22,.07-.48,.04-.71-.03-.22-.24-.44-.24-.67s.21-.44,.24-.67c.03-.23-.11-.49-.04-.71,.06-.22,.32-.37,.42-.57,.1-.21,.04-.5,.16-.69,.12-.19,.41-.26,.56-.43,.15-.17,.18-.47,.35-.62,.17-.15,.47-.13,.66-.26,.19-.12,.3-.4,.51-.49,.21-.09,.49,0,.71-.06,.22-.06,.4-.3,.63-.33,.22-.03,.46,.14,.69,.14s.47-.17,.69-.14c.23,.03,.41,.27,.63,.33,.22,.06,.5-.03,.71,.06,.21,.09,.32,.37,.51,.49,.19,.12,.49,.11,.66,.26,.17,.15,.2,.45,.35,.62,.15,.17,.44,.24,.56,.43,.12,.19,.06,.48,.16,.69,.09,.21,.35,.35,.42,.57,.06,.22-.07,.48-.04,.71,.03,.22,.24,.44,.24,.67"/></g></g></g><path class="cls-24" d="M246.8,272.86c0,.37-.42,.68-.5,1.02-.08,.35,.16,.82,0,1.14-.16,.32-.67,.43-.89,.7-.22,.28-.21,.8-.49,1.03-.28,.22-.78,.09-1.11,.25-.32,.15-.53,.63-.88,.71-.34,.08-.74-.26-1.11-.26s-.76,.34-1.11,.26c-.35-.08-.57-.56-.89-.71-.32-.16-.83-.03-1.11-.25-.28-.22-.26-.75-.49-1.03-.22-.28-.74-.38-.89-.7-.15-.32,.09-.78,0-1.14-.08-.34-.5-.66-.5-1.02s.42-.68,.5-1.02c.08-.35-.16-.82,0-1.14,.16-.32,.67-.43,.89-.7,.22-.28,.21-.8,.49-1.03,.28-.22,.78-.09,1.11-.25,.32-.15,.53-.63,.89-.71,.34-.08,.74,.26,1.11,.26s.76-.34,1.11-.26c.35,.08,.57,.56,.88,.71,.32,.16,.83,.03,1.11,.25,.28,.22,.26,.75,.49,1.03,.22,.28,.74,.38,.89,.7,.15,.32-.09,.78,0,1.14,.08,.34,.5,.66,.5,1.02"/></g><g><g class="cls-85"><g class="cls-51"><g class="cls-53"><path d="M143.07,187.63c0,.23-.21,.44-.24,.67-.03,.23,.11,.49,.04,.71-.06,.22-.32,.37-.42,.57-.1,.21-.04,.5-.16,.69-.12,.19-.41,.26-.56,.43-.15,.17-.18,.47-.35,.62-.17,.15-.47,.13-.66,.26-.19,.12-.3,.4-.51,.49-.21,.09-.49,0-.71,.06-.22,.06-.4,.3-.63,.33-.22,.03-.46-.14-.69-.14s-.47,.17-.69,.14c-.23-.03-.41-.27-.63-.33-.22-.06-.5,.03-.71-.06-.21-.1-.32-.37-.51-.49-.19-.12-.49-.11-.66-.26-.17-.15-.2-.45-.35-.62-.15-.17-.44-.24-.56-.43-.12-.19-.06-.48-.16-.69-.09-.21-.35-.35-.42-.57-.06-.22,.07-.48,.04-.71-.03-.22-.24-.44-.24-.67s.21-.44,.24-.67c.03-.23-.11-.49-.04-.71,.06-.22,.32-.37,.42-.57,.1-.21,.04-.5,.16-.69,.12-.19,.41-.26,.56-.43,.15-.17,.18-.47,.35-.62,.17-.15,.47-.13,.66-.26,.19-.12,.3-.4,.51-.49,.21-.09,.49,0,.71-.06,.22-.06,.4-.3,.63-.33,.22-.03,.46,.14,.69,.14s.47-.17,.69-.14c.23,.03,.41,.27,.63,.33,.22,.06,.5-.03,.71,.06,.21,.09,.32,.37,.51,.49,.19,.12,.49,.11,.66,.26,.17,.15,.2,.45,.35,.62,.15,.17,.44,.24,.56,.43,.12,.19,.06,.48,.16,.69,.09,.21,.35,.35,.42,.57,.06,.22-.07,.48-.04,.71,.03,.22,.24,.44,.24,.67"/></g></g></g><path class="cls-24" d="M142.19,186.66c0,.37-.42,.68-.5,1.02-.08,.35,.16,.82,0,1.14-.16,.32-.67,.43-.89,.7-.22,.28-.21,.8-.49,1.03-.28,.22-.78,.09-1.11,.25-.32,.15-.53,.63-.88,.71-.34,.08-.74-.26-1.11-.26s-.76,.34-1.11,.26c-.35-.08-.57-.56-.89-.71-.32-.16-.83-.03-1.11-.25-.28-.22-.26-.75-.49-1.03-.22-.28-.74-.38-.89-.7-.15-.32,.09-.78,0-1.14-.08-.34-.5-.66-.5-1.02s.42-.68,.5-1.02c.08-.35-.16-.82,0-1.14,.16-.32,.67-.43,.89-.7,.22-.28,.21-.8,.49-1.03,.28-.22,.78-.09,1.11-.25,.32-.15,.53-.63,.89-.71,.34-.08,.74,.26,1.11,.26s.76-.34,1.11-.26c.35,.08,.57,.56,.88,.71,.32,.16,.83,.03,1.11,.25,.28,.22,.26,.75,.49,1.03,.22,.28,.74,.38,.89,.7,.15,.32-.09,.78,0,1.14,.08,.34,.5,.66,.5,1.02"/></g><g><g class="cls-85"><g class="cls-52"><g class="cls-54"><path d="M155.21,187.63c0,.23-.21,.44-.24,.67-.03,.23,.11,.49,.04,.71-.06,.22-.32,.37-.42,.57-.1,.21-.04,.5-.16,.69-.12,.19-.41,.26-.56,.43-.15,.17-.18,.47-.35,.62-.17,.15-.47,.13-.66,.26-.19,.12-.3,.4-.51,.49-.21,.09-.49,0-.71,.06-.22,.06-.4,.3-.63,.33-.22,.03-.46-.14-.69-.14s-.47,.17-.69,.14c-.23-.03-.41-.27-.63-.33-.22-.06-.5,.03-.71-.06-.21-.1-.32-.37-.51-.49-.19-.12-.49-.11-.66-.26-.17-.15-.2-.45-.35-.62-.15-.17-.44-.24-.56-.43-.12-.19-.06-.48-.16-.69-.09-.21-.35-.35-.42-.57-.06-.22,.07-.48,.04-.71-.03-.22-.24-.44-.24-.67s.21-.44,.24-.67c.03-.23-.11-.49-.04-.71,.06-.22,.32-.37,.42-.57,.1-.21,.04-.5,.16-.69,.12-.19,.41-.26,.56-.43,.15-.17,.18-.47,.35-.62,.17-.15,.47-.13,.66-.26,.19-.12,.3-.4,.51-.49,.21-.09,.49,0,.71-.06,.22-.06,.4-.3,.63-.33,.22-.03,.46,.14,.69,.14s.47-.17,.69-.14c.23,.03,.41,.27,.63,.33,.22,.06,.5-.03,.71,.06,.21,.09,.32,.37,.51,.49,.19,.12,.49,.11,.66,.26,.17,.15,.2,.45,.35,.62,.15,.17,.44,.24,.56,.43,.12,.19,.06,.48,.16,.69,.09,.21,.35,.35,.42,.57,.06,.22-.07,.48-.04,.71,.03,.22,.24,.44,.24,.67"/></g></g></g><path class="cls-24" d="M154.33,186.66c0,.37-.42,.68-.5,1.02-.08,.35,.16,.82,0,1.14-.16,.32-.67,.43-.89,.7-.22,.28-.21,.8-.49,1.03-.28,.22-.78,.09-1.11,.25-.32,.15-.53,.63-.88,.71-.34,.08-.74-.26-1.11-.26s-.76,.34-1.11,.26c-.35-.08-.57-.56-.89-.71-.32-.16-.83-.03-1.11-.25-.28-.22-.26-.75-.49-1.03-.22-.28-.74-.38-.89-.7-.15-.32,.09-.78,0-1.14-.08-.34-.5-.66-.5-1.02s.42-.68,.5-1.02c.08-.35-.16-.82,0-1.14,.16-.32,.67-.43,.89-.7,.22-.28,.21-.8,.49-1.03,.28-.22,.78-.09,1.11-.25,.32-.15,.53-.63,.89-.71,.34-.08,.74,.26,1.11,.26s.76-.34,1.11-.26c.35,.08,.57,.56,.88,.71,.32,.16,.83,.03,1.11,.25,.28,.22,.26,.75,.49,1.03,.22,.28,.74,.38,.89,.7,.15,.32-.09,.78,0,1.14,.08,.34,.5,.66,.5,1.02"/></g><g><g class="cls-85"><g class="cls-49"><g class="cls-50"><path d="M528.59,219.85c0,.23-.21,.44-.24,.67-.03,.23,.11,.49,.04,.71-.06,.22-.32,.37-.42,.57-.1,.21-.04,.5-.16,.69-.12,.19-.41,.26-.56,.43-.15,.17-.18,.47-.35,.62-.17,.15-.47,.13-.66,.26-.19,.12-.3,.4-.51,.49-.21,.09-.49,0-.71,.06-.22,.06-.4,.3-.63,.33-.22,.03-.46-.14-.69-.14s-.47,.17-.69,.14c-.23-.03-.41-.27-.63-.33-.22-.06-.5,.03-.71-.06-.21-.1-.32-.37-.51-.49-.19-.12-.49-.11-.66-.26-.17-.15-.2-.45-.35-.62-.15-.17-.44-.24-.56-.43-.12-.19-.06-.48-.16-.69-.09-.21-.35-.35-.42-.57-.06-.22,.07-.48,.04-.71-.03-.22-.24-.44-.24-.67s.21-.44,.24-.67c.03-.23-.11-.49-.04-.71,.06-.22,.32-.37,.42-.57,.1-.21,.04-.5,.16-.69,.12-.19,.41-.26,.56-.43,.15-.17,.18-.47,.35-.62,.17-.15,.47-.13,.66-.26,.19-.12,.3-.4,.51-.49,.21-.09,.49,0,.71-.06,.22-.06,.4-.3,.63-.33,.22-.03,.46,.14,.69,.14s.47-.17,.69-.14c.23,.03,.41,.27,.63,.33,.22,.06,.5-.03,.71,.06,.21,.09,.32,.37,.51,.49,.19,.12,.49,.11,.66,.26,.17,.15,.2,.45,.35,.62,.15,.17,.44,.24,.56,.43,.12,.19,.06,.48,.16,.69,.09,.21,.35,.35,.42,.57,.06,.22-.07,.48-.04,.71,.03,.22,.24,.44,.24,.67"/></g></g></g><path class="cls-24" d="M527.71,218.88c0,.37-.42,.68-.5,1.02-.08,.35,.16,.82,0,1.14-.16,.32-.67,.43-.89,.7-.22,.28-.21,.8-.49,1.03-.28,.22-.78,.09-1.11,.25-.32,.15-.53,.63-.88,.71-.34,.08-.74-.26-1.11-.26s-.76,.34-1.11,.26c-.35-.08-.57-.56-.89-.71-.32-.16-.83-.03-1.11-.25-.28-.22-.26-.75-.49-1.03-.22-.28-.74-.38-.89-.7-.15-.32,.09-.78,0-1.14-.08-.34-.5-.66-.5-1.02s.42-.68,.5-1.02c.08-.35-.16-.82,0-1.14,.16-.32,.67-.43,.89-.7,.22-.28,.21-.8,.49-1.03,.28-.22,.78-.09,1.11-.25,.32-.15,.53-.63,.89-.71,.34-.08,.74,.26,1.11,.26s.76-.34,1.11-.26c.35,.08,.57,.56,.88,.71,.32,.16,.83,.03,1.11,.25,.28,.22,.26,.75,.49,1.03,.22,.28,.74,.38,.89,.7,.15,.32-.09,.78,0,1.14,.08,.34,.5,.66,.5,1.02"/></g><g id="_車椅子"><path class="cls-23" d="M344.17,127.42c.54-.14,.87-.69,.73-1.23-.14-.54-.69-.87-1.23-.73-.54,.14-.87,.69-.73,1.23,.14,.54,.69,.87,1.23,.73"/><path class="cls-23" d="M345.1,130.03l-.08,.87c.14,.09,.26,.19,.38,.31,.42,.42,.68,1,.68,1.65,0,.65-.26,1.23-.68,1.65-.42,.42-1,.68-1.65,.68-.65,0-1.23-.26-1.65-.68-.3-.3-.52-.68-.62-1.11l-.46,1.01c.54,.95,1.56,1.59,2.73,1.59,1.73,0,3.14-1.4,3.14-3.14,0-1.25-.73-2.32-1.78-2.83"/><path class="cls-23" d="M343.06,132.66c.89,0,1.31-.38,1.4-1.24l.26-2.69c.04-.45-.23-.85-.69-.89-.29-.03-.6,.12-.79,.31l-1.26,1.24-1.32,.11c-.21,.02-.38,.2-.38,.41v.02c0,.23,.18,.41,.41,.41h1.56l.71-.52-.12,1.31-1.73,.13c-.5,.02-.72,.22-.91,.67l-.82,2.24c-.12,.27,0,.6,.27,.72,.28,.12,.6,0,.72-.27l.92-1.96h1.76Z"/></g><g id="_車椅子-2"><path class="cls-23" d="M167.94,127.42c.54-.14,.87-.69,.73-1.23-.14-.54-.69-.87-1.23-.73-.54,.14-.87,.69-.73,1.23,.14,.54,.69,.87,1.23,.73"/><path class="cls-23" d="M168.88,130.03l-.08,.87c.14,.09,.26,.19,.38,.31,.42,.42,.68,1,.68,1.65,0,.65-.26,1.23-.68,1.65-.42,.42-1,.68-1.65,.68-.65,0-1.23-.26-1.65-.68-.3-.3-.52-.68-.62-1.11l-.46,1.01c.54,.95,1.56,1.59,2.73,1.59,1.73,0,3.14-1.4,3.14-3.14,0-1.25-.73-2.32-1.78-2.83"/><path class="cls-23" d="M166.84,132.66c.89,0,1.31-.38,1.4-1.24l.26-2.69c.04-.45-.23-.85-.69-.89-.29-.03-.6,.12-.79,.31l-1.26,1.24-1.32,.11c-.21,.02-.38,.2-.38,.41v.02c0,.23,.18,.41,.41,.41h1.56l.71-.52-.12,1.31-1.73,.13c-.5,.02-.72,.22-.91,.67l-.82,2.24c-.12,.27,0,.6,.27,.72,.28,.12,.6,0,.72-.27l.92-1.96h1.76Z"/></g><g id="_車椅子-3"><path class="cls-23" d="M344.17,168.68c.54-.14,.87-.69,.73-1.23-.14-.54-.69-.87-1.23-.73-.54,.14-.87,.69-.73,1.23,.14,.54,.69,.87,1.23,.73"/><path class="cls-23" d="M345.1,171.28l-.08,.87c.14,.09,.26,.19,.38,.31,.42,.42,.68,1,.68,1.65,0,.65-.26,1.23-.68,1.65-.42,.42-1,.68-1.65,.68-.65,0-1.23-.26-1.65-.68-.3-.3-.52-.68-.62-1.11l-.46,1.01c.54,.95,1.56,1.59,2.73,1.59,1.73,0,3.14-1.4,3.14-3.14,0-1.25-.73-2.32-1.78-2.83"/><path class="cls-23" d="M343.06,173.92c.89,0,1.31-.38,1.4-1.24l.26-2.69c.04-.45-.23-.85-.69-.89-.29-.03-.6,.12-.79,.31l-1.26,1.24-1.32,.11c-.21,.02-.38,.2-.38,.41v.02c0,.23,.18,.41,.41,.41h1.56l.71-.52-.12,1.31-1.73,.13c-.5,.02-.72,.22-.91,.67l-.82,2.24c-.12,.27,0,.6,.27,.72,.28,.12,.6,0,.72-.27l.92-1.96h1.76Z"/></g><g id="_車椅子-4"><path class="cls-23" d="M330.75,168.68c.54-.14,.87-.69,.73-1.23-.14-.54-.69-.87-1.23-.73-.54,.14-.87,.69-.73,1.23,.14,.54,.69,.87,1.23,.73"/><path class="cls-23" d="M331.69,171.28l-.08,.87c.14,.09,.26,.19,.38,.31,.42,.42,.68,1,.68,1.65,0,.65-.26,1.23-.68,1.65-.42,.42-1,.68-1.65,.68-.65,0-1.23-.26-1.65-.68-.3-.3-.52-.68-.62-1.11l-.46,1.01c.54,.95,1.56,1.59,2.73,1.59,1.73,0,3.14-1.4,3.14-3.14,0-1.25-.73-2.32-1.78-2.83"/><path class="cls-23" d="M329.65,173.92c.89,0,1.31-.38,1.4-1.24l.26-2.69c.04-.45-.23-.85-.69-.89-.29-.03-.6,.12-.79,.31l-1.26,1.24-1.32,.11c-.21,.02-.38,.2-.38,.41v.02c0,.23,.18,.41,.41,.41h1.56l.71-.52-.12,1.31-1.73,.13c-.5,.02-.72,.22-.91,.67l-.82,2.24c-.12,.27,0,.6,.27,.72,.28,.12,.6,0,.72-.27l.92-1.96h1.76Z"/></g><g id="_車椅子-5"><path class="cls-23" d="M86.12,254.07c.54-.14,.87-.69,.73-1.23-.14-.54-.69-.87-1.23-.73-.54,.14-.87,.69-.73,1.23,.14,.54,.69,.87,1.23,.73"/><path class="cls-23" d="M87.06,256.67l-.08,.87c.14,.09,.26,.19,.38,.31,.42,.42,.68,1,.68,1.65,0,.65-.26,1.23-.68,1.65-.42,.42-1,.68-1.65,.68-.65,0-1.23-.26-1.65-.68-.3-.3-.52-.68-.62-1.11l-.46,1.01c.54,.95,1.56,1.59,2.73,1.59,1.73,0,3.14-1.4,3.14-3.14,0-1.25-.73-2.32-1.78-2.83"/><path class="cls-23" d="M85.02,259.31c.89,0,1.31-.38,1.4-1.24l.26-2.69c.04-.45-.23-.85-.69-.89-.29-.03-.6,.12-.79,.31l-1.26,1.24-1.32,.11c-.21,.02-.38,.2-.38,.41v.02c0,.23,.18,.41,.41,.41h1.56l.71-.52-.12,1.31-1.73,.13c-.5,.02-.72,.22-.91,.67l-.82,2.24c-.12,.27,0,.6,.27,.72,.28,.12,.6,0,.72-.27l.92-1.96h1.76Z"/></g><g id="_車椅子-6"><path class="cls-23" d="M338.28,251.42c.54-.14,.87-.69,.73-1.23-.14-.54-.69-.87-1.23-.73-.54,.14-.87,.69-.73,1.23,.14,.54,.69,.87,1.23,.73"/><path class="cls-23" d="M339.22,254.03l-.08,.87c.14,.09,.26,.19,.38,.31,.42,.42,.68,1,.68,1.65,0,.65-.26,1.23-.68,1.65-.42,.42-1,.68-1.65,.68-.65,0-1.23-.26-1.65-.68-.3-.3-.52-.68-.62-1.11l-.46,1.01c.54,.95,1.56,1.59,2.73,1.59,1.73,0,3.14-1.4,3.14-3.14,0-1.25-.73-2.32-1.78-2.83"/><path class="cls-23" d="M337.18,256.66c.89,0,1.31-.38,1.4-1.24l.26-2.69c.04-.45-.23-.85-.69-.89-.29-.03-.6,.12-.79,.31l-1.26,1.24-1.32,.11c-.21,.02-.38,.2-.38,.41v.02c0,.23,.18,.41,.41,.41h1.56l.71-.52-.12,1.31-1.73,.13c-.5,.02-.72,.22-.91,.67l-.82,2.24c-.12,.27,0,.6,.27,.72,.28,.12,.6,0,.72-.27l.92-1.96h1.76Z"/></g><g id="_駐車場"><rect class="cls-26" x="191.13" y="141.93" width="20.27" height="20.27" rx="1.27" ry="1.27"/><path class="cls-13" d="M199.88,153.8v3.55h-2.08v-10.09h3.93c.76,0,1.42,.14,2,.42,.57,.28,1.02,.67,1.33,1.18,.31,.51,.46,1.09,.46,1.74,0,.99-.34,1.77-1.01,2.34-.68,.57-1.61,.86-2.81,.86h-1.82Zm0-1.68h1.86c.55,0,.97-.13,1.26-.39,.29-.26,.43-.63,.43-1.11s-.15-.89-.44-1.2c-.29-.3-.69-.46-1.21-.47h-1.91v3.17Z"/></g><g id="_駐車場-2"><rect class="cls-26" x="607.25" y="146.95" width="20.27" height="20.27" rx="1.27" ry="1.27"/><path class="cls-13" d="M616,158.82v3.55h-2.08v-10.09h3.93c.76,0,1.42,.14,2,.42,.57,.28,1.02,.67,1.33,1.18,.31,.51,.46,1.09,.46,1.74,0,.99-.34,1.77-1.01,2.34-.68,.57-1.61,.86-2.81,.86h-1.82Zm0-1.68h1.86c.55,0,.97-.13,1.26-.39,.29-.26,.43-.63,.43-1.11s-.15-.89-.44-1.2c-.29-.3-.69-.46-1.21-.47h-1.91v3.17Z"/></g><g id="_駐車場-3"><rect class="cls-26" x="186.61" y="240.82" width="20.27" height="20.27" rx="1.27" ry="1.27"/><path class="cls-13" d="M195.37,252.69v3.55h-2.08v-10.09h3.93c.76,0,1.42,.14,2,.42,.57,.28,1.02,.67,1.33,1.18,.31,.51,.46,1.09,.46,1.74,0,.99-.34,1.77-1.01,2.34-.68,.57-1.61,.86-2.81,.86h-1.82Zm0-1.68h1.86c.55,0,.97-.13,1.26-.39,.29-.26,.43-.63,.43-1.11s-.15-.89-.44-1.2c-.29-.3-.69-.46-1.21-.47h-1.91v3.17Z"/></g><g id="_駐車場-4"><rect class="cls-26" x="446.14" y="159.5" width="20.27" height="20.27" rx="1.27" ry="1.27"/><path class="cls-13" d="M454.89,171.37v3.55h-2.08v-10.09h3.93c.76,0,1.42,.14,2,.42,.57,.28,1.02,.67,1.33,1.18,.31,.51,.46,1.09,.46,1.74,0,.99-.34,1.77-1.01,2.34-.68,.57-1.61,.86-2.81,.86h-1.82Zm0-1.68h1.86c.55,0,.97-.13,1.26-.39,.29-.26,.43-.63,.43-1.11s-.15-.89-.44-1.2c-.29-.3-.69-.46-1.21-.47h-1.91v3.17Z"/></g><polyline class="cls-4" points="643.01 122.56 648.11 122.56 653.21 122.56"/><polyline class="cls-4" points="643.01 146.77 648.11 146.77 653.21 146.77"/><polyline class="cls-4" points="58.54 192.89 63.64 192.89 68.73 192.89"/><polyline class="cls-4" points="58.54 222.51 63.64 222.51 68.73 222.51"/><g><text class="cls-11" transform="translate(70.05 217.66)"><tspan x="0" y="0">出口</tspan></text><polygon class="cls-26" points="61.54 215.17 66.48 219.78 66.48 210.57 61.54 215.17"/></g><g><text class="cls-11" transform="translate(41.83 202.58)"><tspan x="0" y="0">入口</tspan></text><polygon class="cls-26" points="66.48 199.89 61.54 195.28 61.54 204.5 66.48 199.89"/></g><g><circle class="cls-20" cx="371.88" cy="291.47" r="10.83"/><text class="cls-15" transform="translate(367.61 296.31)"><tspan x="0" y="0">2</tspan></text></g><g><circle class="cls-20" cx="132.05" cy="92.33" r="10.83"/><text class="cls-12" transform="translate(123.84 97.42)"><tspan x="0" y="0">11</tspan></text></g><g><circle class="cls-20" cx="198.31" cy="92.33" r="10.83"/><text class="cls-14" transform="translate(189.53 97.39)"><tspan x="0" y="0">10</tspan></text></g><g><circle class="cls-20" cx="305.66" cy="304.62" r="10.83"/><text class="cls-15" transform="translate(301.07 309.71)"><tspan x="0" y="0">1</tspan></text></g><g><circle class="cls-20" cx="424.15" cy="270.77" r="10.83"/><text class="cls-15" transform="translate(419.88 275.85)"><tspan x="0" y="0">3</tspan></text></g><g><circle class="cls-20" cx="476.42" cy="250.06" r="10.83"/><text class="cls-15" transform="translate(471.47 255.14)"><tspan x="0" y="0">4</tspan></text></g><g><circle class="cls-20" cx="522.98" cy="152.48" r="10.83"/><text class="cls-15" transform="translate(518.72 157.56)"><tspan x="0" y="0">5</tspan></text></g><g><circle class="cls-20" cx="463.36" cy="92.33" r="10.83"/><text class="cls-15" transform="translate(458.99 97.42)"><tspan x="0" y="0">6</tspan></text></g><g><circle class="cls-20" cx="397.1" cy="92.33" r="10.83"/><text class="cls-15" transform="translate(393 97.57)"><tspan x="0" y="0">7</tspan></text></g><g><circle class="cls-20" cx="330.83" cy="92.33" r="10.83"/><text class="cls-15" transform="translate(326.57 97.42)"><tspan x="0" y="0">8</tspan></text></g><g><circle class="cls-20" cx="264.57" cy="92.33" r="10.83"/><text class="cls-15" transform="translate(260.31 97.49)"><tspan x="0" y="0">9</tspan></text></g><text class="cls-9" transform="translate(42.25 240.76)"><tspan class="cls-29" x="0" y="0">サ</tspan><tspan class="cls-17" x="0" y="8.99">ン</tspan><tspan class="cls-6" x="0" y="18.12">リ</tspan><tspan class="cls-27" x="0" y="26.25">ッ</tspan><tspan class="cls-18" x="0" y="34.8">ツ</tspan><tspan class="cls-80" x="0" y="43.9">ロ</tspan><tspan class="cls-84" x="0" y="53.53">ー</tspan><tspan class="cls-79" x="0" y="62.74">ド</tspan></text><text class="cls-8" transform="translate(145.09 324.91)"><tspan x="0" y="0">店舗</tspan></text></g></svg>